<svg width="310" height="212" viewBox="0 0 310 212" fill="none" xmlns="http://www.w3.org/2000/svg">
<path d="M201.181 12.0226L77.1754 23.5699L88.7227 147.576L212.729 136.028L201.181 12.0226Z" fill="white"/>
<path d="M212.731 136.048C212.731 136.048 212.731 135.85 212.665 135.448C212.599 135.046 212.569 134.488 212.497 133.732C212.353 132.22 212.137 129.989 211.855 127.079C211.303 121.259 210.494 112.728 209.456 101.881C207.416 80.1873 204.5 49.2122 201.002 12.0516L201.194 12.2076L77.21 23.7685L77.39 23.5526L88.9089 147.561L88.7169 147.405L178.571 139.132L203.768 136.828L210.428 136.228L212.137 136.078L212.737 136.036L212.173 136.096L210.482 136.264L203.882 136.9L178.684 139.3L88.7409 147.765H88.5669V147.591C85.2073 111.546 81.2356 68.9983 77 23.5826V23.3846H77.198L201.194 11.8656H201.368V12.0396C204.794 49.2362 207.65 80.2773 209.654 102.031C210.644 112.872 211.417 121.391 211.951 127.229C212.209 130.127 212.413 132.346 212.551 133.828C212.617 134.572 212.665 135.136 212.701 135.52C212.737 135.904 212.731 136.048 212.731 136.048Z" fill="#263238"/>
<path d="M88.0515 15.1224L82.6096 15.6291L83.84 28.8427L89.282 28.336L88.0515 15.1224Z" fill="#E0E0E0"/>
<path d="M99.6099 139.211L94.168 139.717L95.3984 152.931L100.84 152.424L99.6099 139.211Z" fill="#E0E0E0"/>
<path d="M196.658 5L191.216 5.50675L192.447 18.7203L197.889 18.2136L196.658 5Z" fill="#E0E0E0"/>
<path d="M208.288 129.948L202.846 130.455L204.077 143.668L209.519 143.162L208.288 129.948Z" fill="#E0E0E0"/>
<path d="M163.913 72.3926C173.339 60.6692 171.476 43.5243 159.753 34.0984C148.029 24.6725 130.884 26.535 121.458 38.2584C112.032 49.9819 113.895 67.1268 125.618 76.5527C137.342 85.9786 154.487 84.1161 163.913 72.3926Z" fill="white"/>
<path d="M142.652 82.941C137.307 82.9302 132.079 81.3672 127.605 78.442C123.131 75.5167 119.603 71.3552 117.45 66.4628C115.296 61.5705 114.609 56.158 115.473 50.8829C116.337 45.6078 118.715 40.6972 122.317 36.7476C125.919 32.7979 130.59 29.9794 135.763 28.6343C140.937 27.2892 146.389 27.4754 151.459 29.1704C156.528 30.8654 160.997 33.9962 164.321 38.1824C167.645 42.3686 169.681 47.4301 170.183 52.7518C170.853 60.0452 168.603 67.3063 163.926 72.9431C159.25 78.5798 152.529 82.1321 145.238 82.821C144.368 82.899 143.51 82.941 142.652 82.941ZM142.694 28.4541C141.866 28.4541 141.026 28.4961 140.186 28.5741C133.217 29.2358 126.783 32.5976 122.26 37.9408C117.737 43.284 115.484 50.1847 115.982 57.1674C116.48 64.1502 119.691 70.661 124.926 75.3079C130.162 79.9548 137.008 82.369 144.001 82.0344C150.993 81.6999 157.578 78.6431 162.346 73.5175C167.114 68.392 169.688 61.6044 169.517 54.606C169.347 47.6075 166.445 40.9535 161.432 36.0665C156.42 31.1795 149.694 28.4474 142.694 28.4541Z" fill="#263238"/>
<path d="M155.335 52.1759C155.169 51.9257 154.947 51.718 154.687 51.5694C154.426 51.4207 154.135 51.3354 153.835 51.3202C153.536 51.305 153.237 51.3604 152.963 51.482C152.689 51.6035 152.447 51.7878 152.257 52.0199C151.881 52.5984 151.598 53.2319 151.417 53.8977C150.883 55.5476 150.415 57.2154 149.893 58.8713C149.839 59.0452 149.629 59.1772 149.491 59.3272C149.377 59.1592 149.191 58.9972 149.167 58.8113C149.035 57.8693 148.927 56.9214 148.843 55.9735C148.669 54.1077 148.519 52.2419 148.351 50.382C148.063 47.2503 147.751 44.1126 147.457 40.9869C147.412 40.6308 147.269 40.2942 147.043 40.015C146.775 39.7372 146.426 39.5512 146.046 39.4833C145.666 39.4155 145.274 39.4693 144.926 39.637C144.6 39.8008 144.335 40.0627 144.167 40.3858C143.999 40.7089 143.937 41.0766 143.99 41.4369C144.294 44.7606 144.602 48.0823 144.914 51.4019C144.94 51.5568 144.94 51.715 144.914 51.8699C144.872 51.9959 144.728 52.1579 144.614 52.1699C144.542 52.1578 144.475 52.13 144.416 52.0885C144.356 52.047 144.307 51.9928 144.272 51.9299C144.22 51.7837 144.195 51.6291 144.2 51.4739L143.12 39.895C143.107 39.6516 143.079 39.4091 143.036 39.1691C142.996 38.8685 142.855 38.5902 142.638 38.3791C142.42 38.1679 142.138 38.0362 141.836 38.0052C141.541 37.9255 141.231 37.922 140.935 37.9951C140.639 38.0682 140.366 38.2154 140.142 38.423C139.918 38.6306 139.751 38.8917 139.656 39.1817C139.561 39.4718 139.541 39.7812 139.598 40.081C139.946 43.8847 140.3 47.6843 140.66 51.4799C140.684 51.7033 140.684 51.9285 140.66 52.1519C140.643 52.2203 140.61 52.2835 140.563 52.3359C140.516 52.3882 140.456 52.4281 140.39 52.4519C140.319 52.4464 140.25 52.424 140.19 52.3864C140.129 52.3488 140.079 52.2972 140.042 52.2359C139.981 52.0417 139.948 51.8395 139.946 51.6359C139.658 48.5882 139.388 45.5465 139.088 42.4988C139.03 42.0478 138.799 41.6371 138.443 41.3536C138.087 41.0701 137.635 40.936 137.183 40.9796C136.73 41.0232 136.312 41.2412 136.017 41.5874C135.722 41.9336 135.574 42.3809 135.603 42.8348C135.899 46.0744 136.199 49.3101 136.502 52.5418C136.544 52.739 136.556 52.9411 136.538 53.1418C136.468 53.3162 136.373 53.4798 136.257 53.6277C136.119 53.4838 135.873 53.3518 135.855 53.1958C135.723 52.0259 135.639 50.844 135.531 49.6681C135.423 48.4922 135.315 47.1723 135.177 45.9305C135.152 45.7043 135.08 45.4858 134.967 45.2887C134.853 45.0916 134.7 44.9203 134.516 44.7855C134.333 44.6507 134.124 44.5555 133.902 44.5057C133.68 44.456 133.45 44.4529 133.227 44.4966C133.018 44.5102 132.815 44.5668 132.629 44.6627C132.443 44.7586 132.279 44.8919 132.148 45.0541C132.016 45.2163 131.919 45.404 131.863 45.6054C131.807 45.8067 131.794 46.0175 131.823 46.2244C131.983 48.6642 132.141 51.108 132.297 53.5558C132.435 55.0436 132.555 56.5555 132.627 58.0253C132.708 61.0007 133.377 63.9306 134.595 66.6465C135.122 67.8726 135.946 68.9477 136.994 69.7743C138.042 70.6009 139.279 71.1529 140.594 71.3801C143.532 71.9246 146.566 71.3143 149.065 69.6762C150.823 68.6582 152.115 66.9944 152.665 65.0387C153.655 61.265 154.567 57.4734 155.467 53.6817C155.603 53.18 155.556 52.6463 155.335 52.1759Z" fill="#263238"/>
<path d="M116.38 123.725L116.458 124.607L111.293 125.087L110.651 117.96L115.678 117.492L115.762 118.374L111.755 118.752L111.953 120.935L115.552 120.605L115.63 121.469L112.061 121.805L112.277 124.103L116.38 123.725Z" fill="#263238"/>
<path d="M120.382 118.752L120.472 119.7H120.244C119.2 119.796 118.606 120.497 118.714 121.679L118.966 124.367L117.988 124.457L117.484 119.058L118.426 118.968L118.51 119.874C118.686 119.53 118.955 119.243 119.286 119.045C119.617 118.847 119.996 118.745 120.382 118.752Z" fill="#263238"/>
<path d="M124.48 118.374L124.57 119.316H124.348C123.298 119.418 122.704 120.12 122.818 121.295L123.064 123.983L122.086 124.073L121.588 118.674L122.524 118.59L122.608 119.496C122.783 119.152 123.052 118.864 123.383 118.666C123.714 118.468 124.094 118.366 124.48 118.374Z" fill="#263238"/>
<path d="M125.379 121.061C125.318 120.505 125.423 119.943 125.681 119.447C125.94 118.95 126.341 118.542 126.832 118.274C127.324 118.006 127.884 117.891 128.441 117.942C128.999 117.993 129.528 118.21 129.962 118.563C130.396 118.916 130.715 119.391 130.879 119.926C131.042 120.462 131.043 121.034 130.88 121.569C130.717 122.105 130.399 122.58 129.965 122.934C129.532 123.288 129.002 123.505 128.445 123.557C128.078 123.608 127.704 123.583 127.347 123.483C126.989 123.383 126.657 123.211 126.369 122.977C126.081 122.743 125.845 122.452 125.675 122.122C125.504 121.793 125.404 121.432 125.379 121.061ZM130.005 120.629C129.951 120.283 129.797 119.96 129.562 119.7C129.327 119.439 129.021 119.253 128.682 119.165C128.343 119.076 127.985 119.088 127.653 119.2C127.32 119.312 127.028 119.518 126.811 119.794C126.595 120.07 126.463 120.403 126.433 120.752C126.403 121.102 126.476 121.452 126.643 121.761C126.809 122.069 127.062 122.323 127.371 122.489C127.679 122.656 128.03 122.729 128.379 122.699C128.626 122.679 128.865 122.608 129.083 122.491C129.301 122.375 129.493 122.214 129.646 122.02C129.799 121.826 129.91 121.602 129.973 121.363C130.036 121.123 130.049 120.874 130.011 120.629H130.005Z" fill="#263238"/>
<path d="M134.979 117.396L135.069 118.338H134.841C133.797 118.434 133.203 119.136 133.311 120.318L133.563 123.005L132.585 123.095L132.087 117.696L133.023 117.612L133.107 118.518C133.281 118.173 133.549 117.885 133.881 117.686C134.212 117.488 134.593 117.387 134.979 117.396Z" fill="#263238"/>
<path d="M140.084 116.118L140.318 118.602L143.918 118.272L143.978 119.16L140.378 119.496L140.648 122.375L139.628 122.471L138.968 115.344L143.996 114.876L144.08 115.764L140.084 116.118Z" fill="#263238"/>
<path d="M145.046 119.232C144.985 118.677 145.091 118.117 145.35 117.622C145.608 117.128 146.008 116.721 146.499 116.455C146.989 116.188 147.547 116.073 148.103 116.125C148.659 116.176 149.186 116.392 149.619 116.744C150.052 117.097 150.37 117.57 150.534 118.103C150.697 118.637 150.698 119.207 150.536 119.741C150.374 120.276 150.058 120.75 149.626 121.103C149.194 121.457 148.667 121.674 148.111 121.727C147.744 121.779 147.37 121.755 147.012 121.655C146.654 121.556 146.321 121.384 146.033 121.149C145.745 120.915 145.509 120.624 145.339 120.294C145.169 119.964 145.069 119.602 145.046 119.232ZM149.665 118.8C149.612 118.454 149.458 118.131 149.224 117.87C148.989 117.61 148.684 117.424 148.346 117.335C148.007 117.246 147.65 117.257 147.317 117.368C146.985 117.478 146.693 117.684 146.475 117.958C146.258 118.233 146.125 118.565 146.094 118.914C146.063 119.263 146.134 119.613 146.298 119.922C146.463 120.231 146.715 120.485 147.022 120.654C147.329 120.822 147.678 120.897 148.027 120.869C148.274 120.85 148.515 120.78 148.733 120.663C148.952 120.547 149.144 120.386 149.298 120.192C149.452 119.998 149.564 119.774 149.627 119.534C149.69 119.295 149.703 119.045 149.665 118.8Z" fill="#263238"/>
<path d="M154.645 115.56L154.735 116.502H154.507C153.463 116.598 152.869 117.3 152.977 118.482L153.229 121.169L152.251 121.259L151.753 115.86L152.689 115.776L152.773 116.682C152.948 116.338 153.217 116.051 153.548 115.852C153.879 115.654 154.259 115.553 154.645 115.56Z" fill="#263238"/>
<path d="M161.688 117.678C161.739 118.04 161.715 118.409 161.616 118.76C161.517 119.112 161.346 119.44 161.113 119.722C160.88 120.004 160.592 120.235 160.265 120.399C159.939 120.564 159.581 120.659 159.216 120.677C158.847 120.729 158.471 120.689 158.12 120.562C157.77 120.434 157.456 120.223 157.207 119.946L157.291 120.797L156.349 120.887L155.647 113.334L156.625 113.244L156.901 116.244C157.099 115.942 157.365 115.691 157.677 115.511C157.99 115.331 158.34 115.226 158.7 115.206C159.062 115.156 159.429 115.181 159.78 115.28C160.131 115.38 160.458 115.551 160.739 115.784C161.02 116.016 161.249 116.305 161.413 116.631C161.576 116.957 161.67 117.313 161.688 117.678ZM160.698 117.774C160.645 117.428 160.492 117.105 160.257 116.845C160.023 116.585 159.719 116.399 159.38 116.309C159.042 116.219 158.685 116.23 158.353 116.341C158.021 116.451 157.728 116.655 157.51 116.929C157.292 117.203 157.159 117.535 157.127 117.884C157.095 118.232 157.165 118.582 157.329 118.892C157.493 119.201 157.743 119.456 158.05 119.625C158.356 119.794 158.705 119.87 159.054 119.844C159.302 119.825 159.543 119.755 159.762 119.639C159.982 119.523 160.175 119.363 160.329 119.168C160.483 118.974 160.596 118.75 160.659 118.51C160.723 118.27 160.736 118.019 160.698 117.774Z" fill="#263238"/>
<path d="M162.462 113.202C162.454 113.116 162.463 113.03 162.489 112.948C162.515 112.866 162.557 112.789 162.613 112.724C162.669 112.658 162.738 112.605 162.815 112.566C162.892 112.528 162.976 112.505 163.062 112.5C163.146 112.488 163.232 112.494 163.314 112.516C163.396 112.537 163.473 112.575 163.54 112.627C163.607 112.679 163.663 112.744 163.704 112.818C163.746 112.892 163.772 112.974 163.782 113.058C163.792 113.145 163.784 113.233 163.759 113.316C163.734 113.4 163.692 113.477 163.636 113.544C163.579 113.611 163.51 113.666 163.432 113.705C163.354 113.744 163.269 113.767 163.182 113.772C163.097 113.785 163.01 113.78 162.927 113.758C162.844 113.735 162.766 113.696 162.699 113.643C162.631 113.589 162.575 113.523 162.535 113.447C162.494 113.371 162.469 113.288 162.462 113.202ZM162.786 114.858L163.764 114.768L164.268 120.168L163.29 120.258L162.786 114.858Z" fill="#263238"/>
<path d="M170.513 111.96L171.215 119.514L170.279 119.598L170.201 118.746C170.008 119.064 169.739 119.331 169.419 119.522C169.099 119.713 168.738 119.824 168.366 119.844C168.004 119.877 167.639 119.84 167.292 119.733C166.945 119.626 166.622 119.451 166.343 119.219C166.063 118.988 165.832 118.703 165.662 118.382C165.492 118.061 165.388 117.709 165.354 117.348C165.32 116.986 165.358 116.621 165.465 116.274C165.572 115.927 165.746 115.605 165.978 115.325C166.21 115.045 166.494 114.814 166.815 114.644C167.137 114.475 167.488 114.37 167.85 114.336C168.208 114.288 168.572 114.326 168.913 114.446C169.254 114.566 169.562 114.764 169.811 115.026L169.535 112.026L170.513 111.96ZM169.997 116.904C169.943 116.558 169.788 116.236 169.553 115.976C169.317 115.717 169.012 115.532 168.673 115.444C168.334 115.356 167.977 115.368 167.645 115.48C167.313 115.592 167.021 115.798 166.805 116.073C166.588 116.349 166.457 116.681 166.427 117.03C166.396 117.379 166.468 117.729 166.634 118.037C166.8 118.346 167.052 118.599 167.359 118.767C167.667 118.934 168.017 119.008 168.366 118.98C168.613 118.96 168.853 118.889 169.071 118.771C169.29 118.654 169.481 118.493 169.635 118.298C169.788 118.103 169.899 117.879 169.962 117.639C170.024 117.399 170.036 117.149 169.997 116.904Z" fill="#263238"/>
<path d="M177.449 111.318L178.175 118.866L177.239 118.956L177.161 118.098C176.966 118.417 176.697 118.684 176.376 118.875C176.055 119.067 175.692 119.177 175.319 119.196C174.594 119.254 173.875 119.023 173.318 118.555C172.761 118.087 172.412 117.418 172.345 116.694C172.278 115.969 172.499 115.248 172.96 114.685C173.421 114.123 174.085 113.764 174.809 113.688C175.167 113.641 175.531 113.679 175.872 113.798C176.213 113.918 176.521 114.117 176.771 114.378L176.495 111.408L177.449 111.318ZM176.939 116.262C176.885 115.916 176.732 115.593 176.497 115.333C176.263 115.073 175.958 114.886 175.619 114.797C175.28 114.708 174.923 114.719 174.591 114.83C174.259 114.941 173.966 115.146 173.749 115.421C173.531 115.695 173.399 116.027 173.367 116.376C173.336 116.725 173.407 117.075 173.572 117.384C173.737 117.693 173.988 117.947 174.295 118.116C174.602 118.284 174.952 118.359 175.301 118.332C175.548 118.312 175.788 118.242 176.007 118.126C176.225 118.009 176.418 117.849 176.571 117.654C176.725 117.46 176.837 117.236 176.9 116.996C176.964 116.757 176.977 116.507 176.939 116.262Z" fill="#263238"/>
<path d="M184.636 115.872L180.262 116.28C180.361 116.74 180.636 117.144 181.028 117.404C181.421 117.665 181.9 117.761 182.362 117.672C182.655 117.656 182.94 117.577 183.199 117.441C183.458 117.304 183.684 117.113 183.862 116.88L184.462 117.48C184.101 117.921 183.62 118.248 183.077 118.422C182.534 118.596 181.952 118.609 181.402 118.459C180.852 118.309 180.357 118.003 179.977 117.578C179.597 117.153 179.348 116.627 179.261 116.064C179.212 115.704 179.238 115.337 179.337 114.988C179.436 114.638 179.606 114.313 179.836 114.031C180.066 113.75 180.352 113.519 180.675 113.353C180.998 113.186 181.352 113.088 181.714 113.064C182.075 113.021 182.441 113.053 182.789 113.159C183.137 113.265 183.459 113.443 183.734 113.681C184.009 113.919 184.231 114.211 184.387 114.54C184.542 114.869 184.627 115.226 184.636 115.59C184.644 115.684 184.644 115.778 184.636 115.872ZM180.196 115.578L183.658 115.254C183.566 114.837 183.325 114.468 182.98 114.216C182.635 113.964 182.209 113.848 181.784 113.887C181.359 113.927 180.963 114.121 180.67 114.432C180.378 114.744 180.209 115.151 180.196 115.578Z" fill="#263238"/>
<path d="M191.061 114.534L191.349 117.636L190.371 117.732L190.095 114.732C189.993 113.676 189.418 113.202 188.494 113.292C188.256 113.296 188.022 113.353 187.809 113.459C187.596 113.565 187.409 113.716 187.262 113.902C187.114 114.089 187.01 114.306 186.956 114.537C186.903 114.769 186.901 115.01 186.952 115.242L187.21 118.02L186.232 118.11L185.728 112.71L186.664 112.62L186.742 113.436C186.946 113.125 187.222 112.868 187.547 112.686C187.872 112.504 188.236 112.404 188.608 112.392C189.916 112.278 190.911 112.95 191.061 114.534Z" fill="#263238"/>
<path d="M135.099 106.087L131.085 106.459L131.565 111.612L127.479 111.996L126.999 106.843L114.581 108.001L114.305 105.079L124.126 89.4264L128.631 89.0064L119.38 103.957L126.801 103.261L126.375 98.6955L130.329 98.3236L130.755 102.895L134.775 102.523L135.099 106.087Z" fill="#263238"/>
<path d="M136.304 99.7274C135.615 92.2761 139.304 87.6806 144.704 87.1826C150.103 86.6847 154.591 90.5123 155.287 97.9816C155.983 105.451 152.287 110.028 146.887 110.532C141.488 111.036 137 107.161 136.304 99.7274ZM151.021 98.3596C150.511 92.8821 148.135 90.5603 145.022 90.8423C141.908 91.1242 140.036 93.842 140.546 99.3375C141.056 104.833 143.432 107.137 146.51 106.855C149.587 106.573 151.531 103.837 151.021 98.3596Z" fill="#263238"/>
<path d="M174.323 100.765C174.677 104.593 172.103 108.169 166.008 108.733C162.804 109.033 159.504 108.361 157.243 106.903L158.754 103.459C160.788 104.761 163.204 105.332 165.606 105.079C168.605 104.797 170.279 103.279 170.081 101.197C169.883 99.1155 168.282 97.9636 164.844 98.2816L162.768 98.4736L162.498 95.5938L167.082 88.9944L156.775 89.9544L156.445 86.4207L171.905 84.9808L172.169 87.8005L167.268 94.8619C171.575 95.0059 174.005 97.3637 174.323 100.765Z" fill="#263238"/>
<path d="M309.281 100.424C309.281 100.424 309.281 100.378 309.281 100.295C309.281 100.212 309.281 100.078 309.281 99.9263C309.281 99.5945 309.281 99.129 309.281 98.5438C309.281 97.3134 309.258 95.5392 309.24 93.2995L309.313 93.3733L282.793 93.4193L282.912 93.2995V96.9263C282.912 98.1183 282.912 99.2888 282.912 100.438L282.797 100.318L301.691 100.373L307.267 100.406H308.774H309.166C309.212 100.401 309.258 100.401 309.304 100.406H309.18H308.802H307.323L301.793 100.442L282.802 100.493H282.687V100.378C282.687 99.2289 282.687 98.0584 282.687 96.8664V93.2396L282.806 93.1198L309.327 93.1659H309.401V93.2396C309.401 95.4977 309.369 97.2857 309.359 98.5253C309.359 99.1198 309.359 99.5852 309.359 99.9078C309.359 100.055 309.359 100.171 309.359 100.263C309.343 100.32 309.316 100.375 309.281 100.424Z" fill="#E0E0E0"/>
<path d="M181.922 5H155.401V12.1429H181.922V5Z" fill="#EBEBEB"/>
<path d="M193.018 19.47C193.018 19.47 193.018 19.424 193.018 19.341C193.018 19.2581 193.018 19.129 193.018 18.977C193.018 18.6452 193.018 18.1751 193.018 17.5945C193.018 16.3641 192.995 14.5899 192.977 12.3502L193.051 12.424L166.53 12.47L166.65 12.3502V15.9816C166.65 17.1736 166.65 18.3441 166.65 19.4931L166.535 19.3779L185.429 19.4286L191.005 19.4608H192.512H192.903H193.042C193 19.4657 192.958 19.4657 192.917 19.4608H192.539H191.06L185.53 19.4931L166.539 19.5438H166.419V12.3318L166.539 12.212L193.06 12.2581H193.134V12.3318C193.134 14.5899 193.101 16.3779 193.092 17.6175C193.092 18.2166 193.092 18.6774 193.092 19C193.092 19.1429 193.092 19.2627 193.092 19.3502C193.073 19.3933 193.048 19.4336 193.018 19.47Z" fill="#E0E0E0"/>
<path d="M48.9539 129.866C48.9504 129.823 48.9504 129.78 48.9539 129.737C48.9539 129.645 48.9539 129.525 48.9539 129.373C48.9539 129.037 48.9539 128.571 48.9539 127.968C48.9539 126.737 48.9309 124.963 48.9125 122.723L48.9862 122.797L22.4655 122.843L22.5853 122.723V126.35C22.5853 127.545 22.5853 128.716 22.5853 129.862L22.4701 129.742L41.3641 129.797L46.9401 129.829H48.4424H48.8387H48.977H48.8526H48.4747H46.9954L41.4655 129.866L22.4747 129.917H22.3549V122.728L22.4747 122.608L48.9954 122.654H49.0691V122.728C49.0691 124.986 49.0369 126.774 49.0277 128.014C49.0277 128.613 49.0277 129.074 49.0277 129.396C49.0277 129.544 49.0277 129.659 49.0277 129.751C49.0277 129.843 48.9539 129.866 48.9539 129.866Z" fill="#E0E0E0"/>
<path d="M51.9078 137.009C51.9044 136.963 51.9044 136.917 51.9078 136.871C51.9078 136.77 51.9078 136.645 51.9078 136.493C51.9078 136.143 51.9078 135.664 51.8848 135.06C51.8848 133.806 51.8572 132.037 51.8341 129.866L51.9263 129.959L38.6682 129.986C38.5576 130.092 38.8111 129.839 38.7834 129.866V133.553C38.7834 134.747 38.7834 135.903 38.7834 137.005L38.6682 136.889L48.1705 136.945L50.9355 136.977H51.6774H51.9401C51.8604 136.983 51.7802 136.983 51.7005 136.977H50.9816L48.2581 137.005L38.6774 137.06H38.5668V136.949C38.5668 135.848 38.5668 134.691 38.5668 133.498C38.5668 132.899 38.5668 132.29 38.5668 131.677V129.811C38.5668 129.834 38.7972 129.581 38.6913 129.691L51.9493 129.719H52.0415V129.811C52.0415 132.005 52.0046 133.793 51.9908 135.06C51.9908 135.654 51.9908 136.129 51.9678 136.475C51.9678 136.618 51.9678 136.737 51.9678 136.834C51.9587 136.896 51.9384 136.955 51.9078 137.009Z" fill="#E0E0E0"/>
<path d="M299.521 25.0507C299.517 25.0078 299.517 24.9646 299.521 24.9217C299.521 24.8295 299.521 24.7097 299.521 24.5576C299.521 24.2258 299.521 23.7558 299.521 23.1751C299.521 21.9447 299.521 20.1705 299.479 17.9309L299.553 18.0046L273.032 18.0507C273.083 17.9954 272.908 18.1705 273.148 17.9309V25.0507L273.028 24.9355L291.922 24.9862L297.493 25.0184H299H299.396H299.535H299.41H299.032H297.548L292.018 25.0507L273.028 25.1014H272.876V21.5392C272.876 20.9447 272.876 20.341 272.876 19.7373V17.894C273.115 17.6544 272.945 17.8295 273 17.7742L299.521 17.8203H299.604V17.894C299.604 20.1521 299.571 21.9401 299.562 23.1797C299.562 23.7788 299.562 24.2396 299.562 24.5622C299.562 24.7051 299.562 24.8249 299.562 24.9124C299.552 24.9595 299.538 25.0057 299.521 25.0507Z" fill="#E0E0E0"/>
<path d="M302.475 32.1936C302.468 32.1492 302.468 32.1042 302.475 32.0599C302.475 31.9585 302.475 31.8295 302.475 31.6774C302.475 31.3272 302.475 30.8479 302.452 30.2442C302.452 28.9908 302.419 27.2212 302.401 25.0507L302.493 25.1429L289.23 25.1705L289.35 25.0507V28.7373C289.35 29.9309 289.35 31.0876 289.35 32.1889L289.24 32.0783L298.742 32.129L301.507 32.1613H302.244H302.511C302.432 32.1678 302.352 32.1678 302.272 32.1613H301.553L298.825 32.1936L289.249 32.2442H289.138V32.129C289.138 31.0277 289.138 29.871 289.138 28.6774V24.9908L289.258 24.871L302.521 24.8986H302.613V24.9908C302.613 27.1843 302.581 28.9724 302.567 30.2396C302.567 30.8341 302.567 31.3088 302.544 31.6544C302.544 31.8018 302.544 31.9217 302.544 32.0184C302.544 32.1152 302.475 32.1982 302.475 32.1936Z" fill="#E0E0E0"/>
<path d="M30.5207 58.0645H4V65.2074H30.5207V58.0645Z" fill="#EBEBEB"/>
<path d="M41.6221 72.5346C41.6186 72.4916 41.6186 72.4485 41.6221 72.4055C41.6221 72.3088 41.6221 72.1889 41.6221 72.0369C41.6221 71.7051 41.6221 71.235 41.6221 70.6544C41.6221 69.424 41.5945 67.6498 41.5806 65.4147L41.6544 65.4839L15.1336 65.5346C15.1843 65.4793 15.0092 65.6544 15.2488 65.4147V72.5484L15.129 72.4286L34.023 72.4839L39.5945 72.5161H41.1014H41.4977C41.5436 72.5099 41.5901 72.5099 41.6359 72.5161H41.5115H41.1336H39.6498L34.1198 72.5484L15.0968 72.6636H14.9816V72.5484C14.9816 71.4009 14.9816 70.2442 14.9816 69.0369V65.4147L15.106 65.2903L41.6267 65.341H41.7005V65.4147C41.7005 67.6682 41.6682 69.4608 41.659 70.7005C41.659 71.2949 41.659 71.7604 41.659 72.083C41.659 72.2304 41.659 72.3456 41.659 72.4378C41.6483 72.4706 41.636 72.5029 41.6221 72.5346Z" fill="#E0E0E0"/>
<path d="M233.502 114.341H206.982V121.484H233.502V114.341Z" fill="#EBEBEB"/>
<path d="M244.599 128.811C244.599 128.811 244.599 128.765 244.599 128.682C244.599 128.599 244.599 128.465 244.599 128.313C244.599 127.982 244.599 127.512 244.599 126.931C244.599 125.7 244.576 123.922 244.558 121.687L244.631 121.76L218.111 121.806L218.23 121.687V125.309C218.23 126.502 218.23 127.673 218.23 128.82L218.115 128.7L237.009 128.756L242.585 128.788H244.092H244.484H244.622H244.498H244.12H242.641L237.111 128.825L218.12 128.876H218V121.677L218.12 121.558L244.641 121.604H244.714V121.677C244.714 123.935 244.682 125.723 244.673 126.963C244.673 127.558 244.673 128.023 244.673 128.346C244.673 128.493 244.673 128.608 244.673 128.7C244.653 128.74 244.628 128.777 244.599 128.811Z" fill="#E0E0E0"/>
<path d="M113.479 155.829C113.479 155.829 113.479 155.783 113.479 155.7C113.479 155.618 113.479 155.484 113.479 155.332C113.479 155 113.479 154.53 113.479 153.926C113.479 152.7 113.456 150.922 113.438 148.687L113.512 148.756L86.9908 148.806L87.1106 148.687V152.309C87.1106 153.498 87.1106 154.673 87.1106 155.82L86.9954 155.7L105.889 155.756L111.465 155.788H112.972H113.364C113.41 155.781 113.456 155.781 113.502 155.788H113.378H113H111.521L105.991 155.82L87 155.876H86.8802V148.7L87 148.581L113.521 148.627H113.594V148.7C113.594 150.954 113.562 152.747 113.553 153.986C113.553 154.581 113.553 155.046 113.553 155.369C113.553 155.516 113.553 155.631 113.553 155.723C113.533 155.762 113.508 155.797 113.479 155.829Z" fill="#E0E0E0"/>
<path d="M92.0323 29.8064C92.0323 29.8064 92.0323 29.7604 92.0323 29.6774C92.0323 29.5945 92.0323 29.4654 92.0323 29.3134C92.0323 28.9816 92.0323 28.5115 92.0323 27.9309C92.0323 26.7005 92.0092 24.9263 91.9908 22.6866L92.0645 22.7604L65.5023 22.8018L65.6221 22.682V26.3088C65.6221 27.5038 65.6221 28.6743 65.6221 29.8203L65.5069 29.7051L84.4009 29.7558L89.977 29.7926H91.4839H91.8756H92.0138C91.9725 29.7975 91.9307 29.7975 91.8894 29.7926H91.5115H90.0323L84.5023 29.8249L65.5023 29.9447H65.3825V22.6866L65.5023 22.5668L92.0231 22.6129H92.0968V22.6866C92.0968 24.9447 92.0645 26.7327 92.0553 27.977C92.0553 28.5714 92.0553 29.0369 92.0553 29.3594C92.0553 29.5069 92.0553 29.6221 92.0553 29.7097C92.0511 29.7427 92.0434 29.7751 92.0323 29.8064Z" fill="#E0E0E0"/>
<path d="M265.548 202.995C258.175 197.184 257.018 187.124 257.839 178.189C257.977 176.7 257.903 175.115 258.691 173.843C259.479 172.571 261.189 171.774 262.489 172.484C263.571 173.069 263.977 174.387 264.539 175.493C265.286 176.964 266.433 178.194 267.848 179.041C268.77 179.59 269.931 179.963 270.899 179.502C272.23 178.866 272.484 177.092 272.562 175.608L272.991 167.313C273.069 165.825 273.152 164.309 273.696 162.926C274.24 161.544 275.336 160.29 276.774 159.977C278.212 159.664 279.912 160.581 280.124 162.051C280.146 162.666 280.125 163.282 280.06 163.894C280.06 164.516 280.313 165.212 280.889 165.419C281.465 165.627 282.092 165.226 282.553 164.829C284.175 163.419 285.318 161.548 286.41 159.682C287.502 157.816 288.553 155.903 290.041 154.346C291.53 152.788 293.525 151.581 295.664 151.608C297.802 151.636 299.991 153.055 300.406 155.175C300.82 157.295 299.484 159.359 298.051 160.977C295.932 163.368 293.479 165.441 290.77 167.134C290.246 167.385 289.817 167.797 289.544 168.309C289.161 169.281 290.046 170.318 291.005 170.7C292.092 171.134 293.309 171.088 294.452 171.29C295.594 171.493 296.825 172.078 297.217 173.198C297.737 174.756 296.373 176.272 295.06 177.244C292.434 179.186 289.494 180.662 286.369 181.608C285.253 181.945 284.065 182.23 283.143 182.949C282.221 183.668 281.608 184.968 282.078 186.046C282.548 187.124 283.899 187.539 285.055 187.396C286.212 187.253 287.276 186.687 288.392 186.336C290.479 185.687 293.106 185.977 294.313 187.82C295.106 189.032 295.088 190.65 294.571 192.009C293.994 193.342 293.156 194.545 292.106 195.548C288.644 199.251 284.261 201.967 279.406 203.419C274.576 204.802 270.157 204.977 265.548 202.982" fill="#F5F5F5"/>
<path d="M268.184 197.516C269.953 192.725 271.997 188.04 274.304 183.484L276.097 179.889C276.687 178.714 277.272 177.544 277.94 176.433C279.18 174.309 280.537 172.255 282.005 170.281C283.387 168.387 284.77 166.641 286.088 165.014C287.406 163.387 288.65 161.903 289.848 160.594C291.716 158.52 293.746 156.597 295.917 154.843C296.687 154.226 297.3 153.765 297.723 153.461L298.184 153.115C298.237 153.072 298.294 153.035 298.355 153.005C298.309 153.055 298.258 153.099 298.203 153.138L297.742 153.507C297.332 153.825 296.728 154.3 295.968 154.931C293.816 156.711 291.801 158.65 289.94 160.733C288.751 162.046 287.512 163.535 286.212 165.161C284.912 166.788 283.535 168.544 282.157 170.438C280.7 172.409 279.353 174.458 278.12 176.576C277.484 177.677 276.903 178.839 276.309 180.018C275.714 181.198 275.124 182.401 274.521 183.613C272.219 188.16 270.174 192.832 268.396 197.608" fill="#E0E0E0"/>
<path d="M277.995 176.429C277.937 176.22 277.901 176.005 277.889 175.788C277.834 175.373 277.774 174.77 277.714 174.023C277.59 172.53 277.488 170.465 277.382 168.184C277.276 165.903 277.152 163.848 277.005 162.364C276.931 161.617 276.871 161.018 276.82 160.604C276.782 160.389 276.767 160.172 276.774 159.954C276.847 160.159 276.897 160.37 276.926 160.585C277.005 160.995 277.101 161.594 277.194 162.341C277.392 163.825 277.553 165.889 277.654 168.17C277.756 170.452 277.834 172.456 277.903 174.009C277.935 174.71 277.963 175.304 277.991 175.779C278.016 175.995 278.018 176.212 277.995 176.429Z" fill="#E0E0E0"/>
<path d="M297.3 173.968C297.046 174.005 296.79 174.021 296.535 174.014C296.042 174.014 295.327 174.046 294.447 174.097C292.687 174.184 290.258 174.392 287.59 174.737C284.922 175.083 282.521 175.502 280.788 175.857C279.922 176.028 279.226 176.184 278.742 176.29C278.495 176.36 278.242 176.406 277.986 176.429C278.222 176.324 278.467 176.242 278.719 176.184C279.18 176.046 279.885 175.862 280.747 175.664C282.47 175.263 284.894 174.811 287.553 174.461C289.837 174.157 292.135 173.971 294.438 173.903C295.323 173.876 296.042 173.903 296.535 173.903C296.791 173.9 297.047 173.921 297.3 173.968Z" fill="#E0E0E0"/>
<path d="M268.442 197.18C268.392 197.106 268.352 197.025 268.323 196.94L268.037 196.226C267.793 195.608 267.456 194.705 267.06 193.585C266.267 191.341 265.267 188.212 264.207 184.742C263.147 181.272 262.18 178.129 261.442 175.876C261.078 174.779 260.774 173.876 260.548 173.207C260.456 172.917 260.378 172.677 260.313 172.479C260.277 172.396 260.254 172.307 260.244 172.217C260.294 172.293 260.334 172.375 260.364 172.461C260.442 172.65 260.535 172.885 260.65 173.17C260.899 173.788 261.23 174.691 261.627 175.811C262.419 178.055 263.419 181.184 264.479 184.659C265.539 188.134 266.507 191.267 267.244 193.521C267.613 194.617 267.912 195.521 268.138 196.189C268.23 196.479 268.313 196.723 268.378 196.917C268.411 197.001 268.433 197.09 268.442 197.18Z" fill="#E0E0E0"/>
<path d="M294.304 190.47C294.223 190.511 294.136 190.54 294.046 190.558L293.295 190.76L290.53 191.484C288.194 192.097 284.972 192.977 281.415 193.959C277.857 194.94 274.622 195.802 272.272 196.35C271.097 196.636 270.143 196.853 269.479 196.991L268.714 197.143C268.627 197.166 268.537 197.179 268.447 197.18C268.528 197.137 268.615 197.106 268.705 197.088L269.456 196.885L272.221 196.161C274.558 195.548 277.779 194.668 281.341 193.691C284.903 192.714 288.129 191.848 290.479 191.295C291.654 191.014 292.608 190.793 293.272 190.659L294.037 190.502C294.124 190.479 294.214 190.468 294.304 190.47Z" fill="#E0E0E0"/>
<path d="M39.1981 142.327C39.1981 142.327 35.4838 143.608 39.2673 151.544C43.0507 159.479 45.7189 163.433 45.7189 163.433C45.7189 163.433 46.3825 165.276 44.8433 165.512C43.3041 165.747 39.9493 165.124 39.2166 166.982C38.4838 168.839 39.8202 170.774 42.6359 172.456C45.4516 174.138 51.4885 178.06 52.0368 178.415C52.5852 178.77 53.0921 179.627 52.0691 179.959C51.0461 180.29 43.447 180.88 43.9401 184.465C44.4332 188.051 53.0599 191.465 53.9815 191.857C54.9032 192.249 55.1336 192.65 55.0414 193.17C54.9493 193.691 52.3779 193.631 50.2212 193.899C48.0645 194.166 45.6129 194.82 46.0737 196.876C46.5345 198.931 51.576 203.327 64.0461 204.899L69.8802 205.244L73.1889 200.396C79.6405 189.59 79.2673 182.885 77.9355 181.281C76.6037 179.677 74.5622 181.18 73.0322 182.719C71.5023 184.258 69.9585 186.318 69.4931 186.069C69.0276 185.82 68.8433 185.406 69.1106 184.429C69.3779 183.452 72 174.562 69.4746 171.986C66.9493 169.41 61.811 175.018 60.917 175.618C60.023 176.217 59.6728 175.276 59.7235 174.641C59.7742 174.005 60.4055 166.806 60.8156 163.581C61.2258 160.355 60.5852 158.097 58.5991 157.512C56.6866 156.949 55.1198 159.982 53.9908 161.046C52.8617 162.111 51.811 160.456 51.811 160.456C51.811 160.456 50.3364 155.926 46.4101 148.055C42.4838 140.184 39.1152 142.396 39.1152 142.396" fill="#EBEBEB"/>
<path d="M70.1613 206.627C67.2995 200.834 62.3871 190.456 58.1198 181.571C53.8525 172.687 49.9862 164.645 47.1567 158.839L43.7926 151.972L42.8709 150.101C42.7696 149.894 42.6958 149.728 42.6359 149.613C42.576 149.498 42.5622 149.442 42.5622 149.442C42.5622 149.442 42.5991 149.498 42.6544 149.604L42.9032 150.065C43.1244 150.498 43.4424 151.12 43.8249 151.908C44.6405 153.516 45.8064 155.857 47.2396 158.751C50.1014 164.544 53.9862 172.576 58.2534 181.461C62.5207 190.346 67.4147 200.733 70.235 206.535" fill="#E0E0E0"/>
<path d="M43.871 168.055C44.0094 168.085 44.145 168.127 44.2765 168.18C44.53 168.272 44.8986 168.415 45.3502 168.59C46.2719 168.949 47.4839 169.479 48.8387 170.083L52.2903 171.65L53.3364 172.111C53.4697 172.158 53.5966 172.221 53.7143 172.3C53.5763 172.276 53.4417 172.236 53.3134 172.18C53.0553 172.088 52.6866 171.945 52.2396 171.765C51.341 171.396 50.1106 170.843 48.7604 170.244L45.2995 168.705L44.2489 168.244C44.1161 168.196 43.9893 168.133 43.871 168.055Z" fill="#E0E0E0"/>
<path d="M54.1244 171.935C54.0784 171.935 55.0461 169.327 56.3042 166.152C57.5622 162.977 58.6083 160.41 58.6498 160.429C58.6913 160.447 57.7281 163.037 56.4747 166.217C55.2212 169.396 54.1705 171.954 54.1244 171.935Z" fill="#E0E0E0"/>
<path d="M60.0599 185.88C60.1283 185.753 60.2102 185.634 60.3042 185.525L61.0231 184.604C61.6268 183.82 62.4562 182.733 63.3272 181.502C64.1982 180.272 64.9539 179.129 65.4931 178.276L66.1291 177.295C66.2002 177.169 66.2852 177.052 66.3825 176.945C66.3327 177.081 66.2678 177.21 66.189 177.332C66.0553 177.571 65.8572 177.922 65.5991 178.346C65.0876 179.194 64.3503 180.35 63.4747 181.571C62.5991 182.793 61.7512 183.876 61.1198 184.65C60.8019 185.028 60.5438 185.336 60.3549 185.539C60.2673 185.662 60.1685 185.776 60.0599 185.88Z" fill="#E0E0E0"/>
<path d="M50.0092 184.406C50.1424 184.389 50.277 184.389 50.4101 184.406L51.4885 184.521C52.4101 184.627 53.6498 184.783 55.0369 184.982C56.424 185.18 57.6728 185.341 58.5806 185.479L59.6498 185.65C59.7825 185.662 59.9128 185.693 60.0369 185.742C59.9051 185.755 59.7723 185.755 59.6405 185.742L58.5622 185.627C57.6406 185.521 56.3963 185.364 55.0138 185.166C53.6313 184.968 52.3779 184.802 51.47 184.664L50.4009 184.493C50.2674 184.479 50.136 184.45 50.0092 184.406Z" fill="#E0E0E0"/>
<path d="M53.6866 197.378C53.8576 197.375 54.0286 197.384 54.1982 197.406L55.5807 197.548C56.7466 197.677 58.3456 197.866 60.129 198.083C61.9124 198.3 63.5161 198.516 64.6774 198.673L66.0599 198.876C66.2302 198.891 66.3985 198.923 66.5622 198.972C66.3928 198.979 66.2231 198.969 66.0553 198.945L64.6728 198.802C63.5023 198.673 61.9078 198.484 60.1198 198.267C58.3318 198.051 56.7327 197.839 55.5714 197.677L54.1889 197.475C54.0188 197.459 53.8505 197.426 53.6866 197.378Z" fill="#E0E0E0"/>
<path d="M66.2581 198.848C66.3437 198.686 66.4439 198.531 66.5576 198.387L67.424 197.175C68.1567 196.157 69.1613 194.742 70.2258 193.147C71.2903 191.553 72.2166 190.088 72.8848 189.023L73.6682 187.76C73.7564 187.597 73.8597 187.443 73.977 187.3C73.9076 187.468 73.826 187.631 73.7327 187.788C73.5622 188.097 73.3134 188.539 72.9908 189.078C72.3548 190.161 71.4424 191.645 70.3733 193.226C69.3041 194.806 68.2857 196.226 67.5299 197.23C67.1475 197.728 66.8341 198.152 66.6083 198.406C66.5018 198.561 66.3848 198.709 66.2581 198.848Z" fill="#E0E0E0"/>
<path d="M37.7374 184.811C35.5623 182.244 35.2765 178.124 35.5945 174.779C35.9125 171.433 36.6913 168.06 36.1613 164.742C35.848 162.774 35.0876 160.894 34.8295 158.917C34.5715 156.94 34.9355 154.71 36.4655 153.433C38.2258 151.968 40.9954 152.313 42.8249 153.691C44.6544 155.069 45.7189 157.23 46.5116 159.382C48.212 164.115 48.8387 169.364 47.4332 174.198C46.0277 179.032 42.7558 183.35 37.9401 184.797" fill="#263238"/>
<path d="M49.2857 190.636C49.6406 189.396 50.4055 188.198 51.5899 187.691C52.7742 187.184 54.2489 187.461 55.5069 187.917C56.765 188.373 58.0046 188.991 59.341 189.074C60.6774 189.157 62.1936 188.521 62.5945 187.23C62.9678 186.028 62.2443 184.747 61.3364 183.871C60.3772 182.949 59.2013 182.282 57.917 181.934C56.6327 181.585 55.2813 181.565 53.9873 181.876C52.6933 182.187 51.4984 182.818 50.5124 183.712C49.5265 184.606 48.7814 185.733 48.3456 186.991" fill="#263238"/>
<g opacity="0.3">
<path d="M49.2857 190.636C49.6406 189.396 50.4055 188.198 51.5899 187.691C52.7742 187.184 54.2489 187.461 55.5069 187.917C56.765 188.373 58.0046 188.991 59.341 189.074C60.6774 189.157 62.1936 188.521 62.5945 187.23C62.9678 186.028 62.2443 184.747 61.3364 183.871C60.3772 182.949 59.2013 182.282 57.917 181.934C56.6327 181.585 55.2813 181.565 53.9873 181.876C52.6933 182.187 51.4984 182.818 50.5124 183.712C49.5265 184.606 48.7814 185.733 48.3456 186.991" fill="black"/>
</g>
<path d="M38.682 196.014C36.7189 194.17 36.8387 190.903 37.7972 188.378C38.7558 185.853 40.9125 183.917 43.2996 182.636C45.6325 181.41 48.2131 180.729 50.8471 180.645C53.4812 180.56 56.1001 181.074 58.5069 182.147C57.3273 182.195 56.1774 182.532 55.1585 183.128C54.1395 183.724 53.2828 184.562 52.6636 185.567C51.5853 187.355 51.3456 189.525 50.4562 191.41C49.4573 193.54 47.6791 195.205 45.4884 196.063C43.2976 196.92 40.8614 196.904 38.682 196.018" fill="#263238"/>
<path d="M36.6959 205.843C36.6839 205.745 36.6839 205.646 36.6959 205.548C36.6959 205.355 36.6959 205.088 36.6959 204.7C36.6959 203.963 36.7881 202.899 36.9494 201.59C37.139 200.058 37.4159 198.537 37.7788 197.037C38.229 195.192 38.9282 193.417 39.8572 191.76C41.5554 188.746 43.9411 186.176 46.8203 184.258C47.3641 183.885 47.8941 183.604 48.3457 183.336C48.7973 183.069 49.2166 182.876 49.5484 182.737L50.3318 182.41C50.4216 182.367 50.5159 182.335 50.6129 182.313C50.531 182.371 50.4429 182.419 50.3503 182.456L49.5899 182.82C49.2627 182.991 48.8664 183.198 48.4102 183.452C47.954 183.705 47.4517 184.014 46.9171 184.396C44.0945 186.335 41.7509 188.891 40.0646 191.871C38.0692 195.359 37.5208 199.032 37.1199 201.608C36.9355 202.908 36.8434 203.968 36.7881 204.7C36.7635 205.048 36.7451 205.329 36.7328 205.544C36.7314 205.645 36.7191 205.745 36.6959 205.843Z" fill="#263238"/>
<path d="M17.8019 177.7C13.7834 180.129 13.7927 182.336 14.4655 184.424C15.1383 186.511 17.6037 187.954 19.6544 187.189C20.8111 186.728 21.6452 185.742 22.3641 184.733C23.083 183.723 23.7466 182.641 24.7558 181.912C25.765 181.184 27.212 180.912 28.2166 181.631" fill="#263238"/>
<g opacity="0.3">
<path d="M17.8019 177.7C13.7834 180.129 13.7927 182.336 14.4655 184.424C15.1383 186.511 17.6037 187.954 19.6544 187.189C20.8111 186.728 21.6452 185.742 22.3641 184.733C23.083 183.723 23.7466 182.641 24.7558 181.912C25.765 181.184 27.212 180.912 28.2166 181.631" fill="black"/>
</g>
<path d="M14.8111 180.364C15.8618 178.908 18.4609 178.488 20.1014 179.212C21.742 179.935 22.9447 181.378 24.0185 182.811C25.0922 184.244 26.1429 185.765 27.6314 186.76C29.1199 187.756 31.2028 188.143 32.7005 187.115C33.1741 186.763 33.5708 186.317 33.8663 185.806C34.1619 185.295 34.3501 184.729 34.4194 184.143C34.5494 182.969 34.4682 181.781 34.1798 180.636C33.8249 178.949 33.2581 177.189 31.8987 176.115C30.3917 174.922 28.3042 174.866 26.3687 174.926C24.1659 175 21.9309 175.166 19.8618 175.931C17.7927 176.696 15.6821 178.341 14.7927 180.364" fill="#263238"/>
<path d="M33.2074 205.654C33.1895 205.54 33.1803 205.424 33.1798 205.309C33.1798 205.055 33.1798 204.723 33.1383 204.309C33.1106 203.415 33.0738 202.17 33.0231 200.622C32.9724 199.074 32.9079 197.226 32.7927 195.18C32.6775 193.134 32.5254 190.889 32.2166 188.548C32.0829 187.411 31.8594 186.286 31.5484 185.184C31.2322 184.167 30.8218 183.181 30.3226 182.24C29.4987 180.633 28.4079 179.177 27.0968 177.935C26.1954 177.11 25.1786 176.421 24.0784 175.889C23.7787 175.739 23.471 175.605 23.1567 175.488C23.0453 175.454 22.9385 175.406 22.8387 175.346C22.9526 175.372 23.0649 175.404 23.1752 175.442C23.4891 175.544 23.7969 175.664 24.0968 175.802C25.2186 176.313 26.2553 176.994 27.1705 177.82C28.5199 179.058 29.6441 180.521 30.4931 182.143C31.005 183.093 31.4262 184.09 31.7512 185.12C32.0697 186.235 32.2963 187.374 32.4286 188.525C32.742 190.876 32.8894 193.134 32.9908 195.18C33.0922 197.226 33.1429 199.074 33.1705 200.627C33.1982 202.18 33.2074 203.433 33.2074 204.313C33.2074 204.728 33.2074 205.06 33.2074 205.313C33.2209 205.427 33.2209 205.541 33.2074 205.654Z" fill="#263238"/>
<path d="M35 205.654C35 205.654 35 205.617 34.9585 205.544L34.8526 205.207C34.7604 204.908 34.6544 204.465 34.5392 203.885C34.2524 202.242 34.1473 200.573 34.2258 198.908C34.3263 196.434 34.7318 193.982 35.4332 191.608C36.2397 188.94 37.3871 186.078 38.4009 183.06C39.3779 180.21 40.0077 177.254 40.2765 174.253C40.4854 171.802 40.5423 169.339 40.447 166.88C40.3825 164.779 40.2765 163.078 40.2074 161.903C40.1751 161.332 40.1521 160.88 40.1337 160.553C40.1337 160.41 40.1337 160.29 40.1337 160.198C40.1284 160.158 40.1284 160.118 40.1337 160.078C40.1384 160.118 40.1384 160.158 40.1337 160.198C40.1337 160.29 40.1337 160.406 40.1751 160.548C40.2028 160.876 40.2443 161.327 40.2903 161.899C40.3871 163.069 40.5208 164.77 40.6083 166.871C40.725 169.336 40.6849 171.807 40.4885 174.267C40.2289 177.286 39.6005 180.263 38.6175 183.129C37.6037 186.18 36.4516 189.018 35.636 191.673C34.9326 194.034 34.5164 196.47 34.3963 198.931C34.302 200.586 34.3808 202.246 34.6314 203.885C34.7327 204.461 34.8203 204.908 34.8986 205.207C34.9309 205.346 34.9585 205.461 34.9816 205.548C34.991 205.583 34.9971 205.619 35 205.654Z" fill="#263238"/>
<path d="M190.608 132.263H186.613V205.705H190.608V132.263Z" fill="#E0E0E0"/>
<path d="M192.65 129.751C192.65 130.548 192.414 131.326 191.971 131.989C191.528 132.651 190.899 133.167 190.163 133.472C189.427 133.777 188.618 133.857 187.836 133.701C187.055 133.546 186.337 133.162 185.774 132.599C185.211 132.036 184.827 131.318 184.672 130.537C184.516 129.756 184.596 128.946 184.901 128.21C185.206 127.474 185.722 126.845 186.384 126.402C187.047 125.96 187.825 125.724 188.622 125.724C189.151 125.723 189.675 125.827 190.164 126.029C190.653 126.231 191.097 126.528 191.471 126.902C191.846 127.276 192.142 127.72 192.344 128.209C192.547 128.698 192.65 129.222 192.65 129.751Z" fill="#263238"/>
<path d="M270 132.263H266.005V205.705H270V132.263Z" fill="#E0E0E0"/>
<path d="M272.037 129.751C272.037 130.548 271.8 131.327 271.358 131.989C270.915 132.652 270.286 133.168 269.549 133.473C268.813 133.777 268.003 133.857 267.222 133.701C266.44 133.545 265.723 133.161 265.159 132.598C264.596 132.034 264.213 131.316 264.058 130.534C263.903 129.752 263.984 128.943 264.289 128.207C264.595 127.471 265.112 126.842 265.775 126.4C266.438 125.958 267.217 125.723 268.014 125.724C268.542 125.724 269.066 125.828 269.554 126.03C270.043 126.233 270.486 126.529 270.86 126.903C271.234 127.278 271.53 127.722 271.732 128.21C271.934 128.699 272.037 129.222 272.037 129.751Z" fill="#263238"/>
<path d="M277.567 139.35H175.212V157.664H277.567V139.35Z" fill="#263238"/>
<path d="M186.793 139.35L186.613 139.654L176.097 157.664H175.207V139.35H186.793Z" fill="#F5F5F5"/>
<path d="M212.664 139.35L201.958 157.664H187.972L192.226 150.387L198.677 139.35H212.664Z" fill="#F5F5F5"/>
<path d="M238.521 139.35L227.82 157.664H213.834L224.534 139.35H238.521Z" fill="#F5F5F5"/>
<path d="M264.382 139.355L253.673 157.664H239.691L250.396 139.355H264.382Z" fill="#F5F5F5"/>
<path d="M277.562 139.355V157.664H265.553L276.258 139.355H277.562Z" fill="#F5F5F5"/>
<path d="M277.567 167.641H175.212V185.954H277.567V167.641Z" fill="#263238"/>
<path d="M186.793 167.641L186.613 167.945L176.097 185.954H175.207V167.641H186.793Z" fill="#F5F5F5"/>
<path d="M212.664 167.641L201.958 185.954H187.972L192.226 178.682L198.677 167.641H212.664Z" fill="#F5F5F5"/>
<path d="M238.521 167.641L227.82 185.954H213.834L224.534 167.641H238.521Z" fill="#F5F5F5"/>
<path d="M264.382 167.645L253.673 185.954H239.691L250.396 167.645H264.382Z" fill="#F5F5F5"/>
<path d="M277.562 167.645V185.954H265.553L276.258 167.645H277.562Z" fill="#F5F5F5"/>
<path d="M277.562 157.664C277.562 157.664 277.562 157.553 277.562 157.346C277.562 157.138 277.562 156.829 277.562 156.424C277.562 155.608 277.562 154.415 277.535 152.862C277.535 149.747 277.502 145.18 277.475 139.341L277.581 139.447L175.235 139.544L175.433 139.341V157.654L175.235 157.452L248.101 157.544L269.705 157.599L275.544 157.627H277.06H277.585C277.585 157.627 277.424 157.627 277.088 157.627H275.594L269.802 157.65L248.24 157.71L175.235 157.797H175.032V139.147H175.24L277.585 139.244H277.691V139.35C277.691 145.217 277.645 149.802 277.631 152.935C277.631 154.472 277.631 155.65 277.631 156.47C277.631 156.857 277.631 157.157 277.631 157.369C277.631 157.581 277.562 157.664 277.562 157.664Z" fill="#263238"/>
<path d="M277.562 185.954C277.562 185.954 277.562 185.843 277.562 185.641C277.562 185.438 277.562 185.12 277.562 184.719C277.562 183.903 277.562 182.714 277.535 181.157C277.535 178.041 277.502 173.479 277.475 167.636L277.581 167.742L175.235 167.839L175.433 167.636V185.949L175.235 185.751L248.101 185.839L269.705 185.899H275.544H277.06H277.585C277.585 185.899 277.424 185.899 277.088 185.899H275.594L269.802 185.926L248.24 185.982L175.235 186.074H175.032V167.438H175.24L277.585 167.535H277.691V167.641C277.691 173.512 277.645 178.092 277.631 181.226C277.631 182.762 277.631 183.94 277.631 184.76C277.631 185.147 277.631 185.447 277.631 185.659C277.631 185.871 277.562 185.954 277.562 185.954Z" fill="#263238"/>
<path d="M300.885 205.705C300.885 205.77 236.138 205.825 156.295 205.825C76.4516 205.825 11.6866 205.77 11.6866 205.705C11.6866 205.641 76.4194 205.585 156.295 205.585C236.171 205.585 300.885 205.636 300.885 205.705Z" fill="#263238"/>
<path d="M56.9124 93.8203H52.7189V205.705H56.9124V93.8203Z" fill="#E0E0E0"/>
<path d="M56.9125 205.705C56.9125 205.705 56.9125 205.502 56.9125 205.124C56.9125 204.747 56.9125 204.17 56.9125 203.433C56.9125 201.945 56.9125 199.747 56.9125 196.94C56.9125 191.304 56.9124 183.147 56.8756 173.046C56.8756 152.857 56.8433 124.903 56.8249 93.8203L56.9447 93.9401H52.7512L52.871 93.8203C52.8249 147.737 52.788 193.032 52.7788 205.705L52.7512 205.673H55.9171C56.6083 205.673 56.9447 205.673 56.9447 205.673H55.9355H52.7512H52.7189V205.645C52.7189 192.972 52.6728 147.673 52.6313 93.7604V93.6406H57.0645V93.7604C57.0645 124.88 57.0277 152.866 57.0138 173.074C57.0138 183.166 56.9862 191.309 56.977 196.94C56.977 199.747 56.977 201.922 56.977 203.392C56.977 204.124 56.977 204.682 56.977 205.065C56.977 205.447 56.9125 205.705 56.9125 205.705Z" fill="#263238"/>
<path d="M64.7423 96.3643C77.0502 90.8819 82.5834 76.46 77.101 64.1521C71.6186 51.8442 57.1967 46.3111 44.8888 51.7935C32.5809 57.2759 27.0478 71.6977 32.5302 84.0056C38.0126 96.3135 52.4344 101.847 64.7423 96.3643Z" fill="#263238"/>
<path d="M76.7741 73.1659C76.7485 73.0493 76.7346 72.9304 76.7327 72.8111C76.7327 72.5576 76.6912 72.212 76.6589 71.7696C76.6589 71.5392 76.6267 71.2811 76.6129 71C76.599 70.7189 76.5207 70.4147 76.47 70.0783C76.3729 69.3137 76.2189 68.5574 76.0092 67.8157C75.4974 65.7658 74.6753 63.8061 73.5714 62.0046C72.1321 59.6062 70.2453 57.5067 68.0138 55.8203C65.3167 53.7651 62.1735 52.3742 58.8387 51.7604C55.0106 51.0557 51.0639 51.385 47.4055 52.7143C46.4322 53.0662 45.4838 53.4835 44.5668 53.9631C44.1059 54.212 43.6682 54.5023 43.2119 54.7742C42.7546 55.0504 42.3173 55.3583 41.9032 55.6959C41.0345 56.3413 40.2094 57.0432 39.4331 57.7972C38.6663 58.5875 37.9549 59.4298 37.3041 60.318C35.9524 62.135 34.9021 64.1578 34.1935 66.3088C32.7006 70.763 32.7006 75.5826 34.1935 80.0369C34.9014 82.1872 35.9501 84.2099 37.2995 86.0276C37.9531 86.9165 38.6659 87.7602 39.4331 88.553C40.2091 89.3042 41.0326 90.0045 41.8986 90.6498C42.314 90.9877 42.7529 91.2957 43.2119 91.5714C43.6728 91.8387 44.1106 92.129 44.5668 92.3779C49.5108 95.0081 55.2756 95.6407 60.6723 94.1453C66.069 92.65 70.6861 89.1406 73.5714 84.341C74.6734 82.5385 75.4954 80.5792 76.0092 78.53C76.2185 77.7881 76.3725 77.0319 76.47 76.2673C76.5207 75.9355 76.5806 75.6313 76.6129 75.3456C76.6451 75.0599 76.6451 74.8111 76.6589 74.5806C76.6912 74.1198 76.7142 73.7926 76.7327 73.5392C76.7346 73.4198 76.7485 73.3009 76.7741 73.1843C76.7833 73.3024 76.7833 73.4211 76.7741 73.5392C76.7741 73.7926 76.7741 74.1429 76.7465 74.5853C76.7465 74.8157 76.7465 75.0737 76.7142 75.3548C76.682 75.6359 76.6359 75.9447 76.5944 76.2765C76.5069 77.0462 76.3637 77.8086 76.1659 78.5576C75.6754 80.634 74.8671 82.6221 73.7695 84.4516C72.1772 87.1529 70.0272 89.4836 67.4628 91.2883C64.8985 93.0929 61.9788 94.33 58.8986 94.917C55.0087 95.6532 50.9927 95.3349 47.2672 93.9954C46.276 93.6402 45.3106 93.2167 44.3778 92.7281C43.917 92.4747 43.4562 92.1797 42.9953 91.9078C42.5262 91.6342 42.0779 91.3261 41.6543 90.9862C39.8429 89.6878 38.2579 88.0997 36.9631 86.2857C35.5828 84.4347 34.5106 82.3728 33.788 80.1797C32.2612 75.6411 32.2612 70.7276 33.788 66.1889C34.5119 63.9988 35.5824 61.9388 36.9585 60.0876C37.6259 59.1848 38.3526 58.3273 39.1336 57.5207C39.9257 56.7545 40.7678 56.0417 41.6543 55.3871C42.0771 55.0481 42.5237 54.7401 42.9907 54.4654C43.4516 54.1889 43.9124 53.894 44.3732 53.6406C45.3073 53.1562 46.2726 52.7343 47.2626 52.3779C50.9874 51.0352 55.0042 50.7169 58.894 51.4562C61.9728 52.0472 64.8908 53.2859 67.4546 55.0901C70.0184 56.8944 72.1694 59.223 73.7649 61.9217C74.861 63.7519 75.6692 65.7398 76.1612 67.8157C76.3604 68.5722 76.5036 69.3423 76.5898 70.1198C76.6313 70.4516 76.6866 70.7604 76.7096 71.0415C76.7327 71.3226 76.7096 71.5806 76.7419 71.8111C76.7419 72.2719 76.7419 72.6037 76.7695 72.8617C76.7778 72.9629 76.7793 73.0645 76.7741 73.1659Z" fill="white"/>
<path d="M67.5207 70.4147H42.1152V75.7143H67.5207V70.4147Z" fill="#FAFAFA"/>
</svg>
