<svg width="276" height="213" viewBox="0 0 276 213" fill="none" xmlns="http://www.w3.org/2000/svg">
<path d="M276 187.174H0.196045V187.312H276V187.174Z" fill="#EBEBEB"/>
<path d="M248.364 192.425H198.223V192.563H248.364V192.425Z" fill="#EBEBEB"/>
<path d="M182.9 190.93H169.17V191.068H182.9V190.93Z" fill="#EBEBEB"/>
<path d="M214.281 197.549H192.994V197.687H214.281V197.549Z" fill="#EBEBEB"/>
<path d="M41.6218 196.623H29.1334V196.761H41.6218V196.623Z" fill="#EBEBEB"/>
<path d="M61.3639 196.623H46.5311V196.761H61.3639V196.623Z" fill="#EBEBEB"/>
<path d="M124.391 194.295H98.5533V194.433H124.391V194.295Z" fill="#EBEBEB"/>
<path d="M236.93 120.821C236.112 120.824 235.299 120.929 234.508 121.135C233.726 120.071 232.734 119.177 231.595 118.509C230.455 117.84 229.192 117.412 227.881 117.248C226.57 117.085 225.239 117.191 223.971 117.56C222.702 117.928 221.522 118.552 220.503 119.392C218.83 116.566 216.305 114.342 213.289 113.039C210.274 111.737 206.924 111.423 203.719 112.143C200.515 112.863 197.62 114.579 195.452 117.046C193.283 119.513 191.952 122.603 191.648 125.873C189.911 125.487 188.106 125.527 186.388 125.989C184.67 126.452 183.089 127.323 181.78 128.528C180.471 129.734 179.473 131.238 178.871 132.913C178.27 134.588 178.082 136.383 178.325 138.146C178.567 139.909 179.233 141.587 180.264 143.037C181.295 144.487 182.662 145.666 184.248 146.474C185.834 147.281 187.591 147.693 189.371 147.674C191.15 147.655 192.899 147.206 194.467 146.366C195.169 148.901 196.615 151.167 198.62 152.87C200.624 154.574 203.094 155.636 205.709 155.919C208.324 156.203 210.964 155.694 213.287 154.46C215.61 153.226 217.509 151.323 218.738 148.997C220.843 150.794 223.413 151.957 226.152 152.354C228.891 152.751 231.687 152.364 234.215 151.238C236.743 150.112 238.901 148.293 240.438 145.992C241.976 143.691 242.831 141.002 242.903 138.235C244.511 136.995 245.689 135.283 246.274 133.339C246.858 131.395 246.82 129.317 246.163 127.397C245.507 125.476 244.265 123.809 242.613 122.63C240.961 121.45 238.981 120.818 236.952 120.821H236.93Z" fill="#F5F5F5"/>
<path d="M40.2814 62.4661C39.0429 61.9261 37.6408 61.8999 36.383 62.3933C35.1252 62.8867 34.1148 63.8593 33.5738 65.0973C32.9553 64.7871 32.28 64.6062 31.5893 64.5654C30.8985 64.5247 30.2067 64.6251 29.5559 64.8604C28.9052 65.0957 28.3092 65.4611 27.8043 65.9342C27.2994 66.4074 26.8961 66.9784 26.619 67.6124C26.3419 68.2465 26.1968 68.9303 26.1925 69.6223C26.1883 70.3143 26.325 70.9998 26.5943 71.6372C26.8637 72.2746 27.26 72.8505 27.7591 73.3298C28.2582 73.8091 28.8497 74.1817 29.4975 74.425L38.8362 78.5014L42.9126 69.1626C43.4506 67.9256 43.4757 66.5256 42.9824 65.27C42.4891 64.0145 41.5176 63.006 40.2814 62.4661Z" fill="#F5F5F5"/>
<path d="M83.8253 17.9734C83.6174 17.5773 83.3333 17.226 82.9894 16.9398C82.6456 16.6535 82.2487 16.4379 81.8214 16.3052C81.3941 16.1725 80.9448 16.1254 80.4993 16.1665C80.0538 16.2076 79.6207 16.3361 79.2249 16.5448C78.7889 15.7722 78.0689 15.2001 77.2179 14.9499C76.3668 14.6996 75.4517 14.791 74.6669 15.2046C73.8822 15.6182 73.2895 16.3213 73.0148 17.1648C72.7402 18.0083 72.8051 18.9256 73.1959 19.722L76.3731 25.7511L82.3856 22.5738C82.7827 22.3668 83.135 22.0835 83.4224 21.74C83.7098 21.3966 83.9266 20.9998 84.0603 20.5724C84.194 20.1451 84.2421 19.6955 84.2018 19.2495C84.1615 18.8035 84.0336 18.3699 83.8253 17.9734Z" fill="#E6E6E6"/>
<path d="M222.494 4.28251C222.286 3.88684 222.001 3.53614 221.657 3.25044C221.313 2.96475 220.916 2.74967 220.489 2.6175C220.062 2.48533 219.612 2.43866 219.167 2.48016C218.722 2.52166 218.289 2.65052 217.894 2.85936C217.686 2.4624 217.402 2.11027 217.058 1.82309C216.714 1.5359 216.317 1.31928 215.889 1.18559C215.461 1.05191 215.011 1.00377 214.565 1.04393C214.119 1.08409 213.685 1.21177 213.288 1.41967C212.891 1.62756 212.539 1.91161 212.251 2.25559C211.964 2.59958 211.748 2.99676 211.614 3.42446C211.48 3.85216 211.432 4.302 211.472 4.7483C211.512 5.19461 211.64 5.62863 211.848 6.02559L215.025 12.0491L221.049 8.8774C221.848 8.45807 222.449 7.73928 222.72 6.87822C222.991 6.01717 222.909 5.0839 222.494 4.28251Z" fill="#F5F5F5"/>
<path d="M244.558 103.975C244.454 103.315 244.092 102.723 243.553 102.329C243.013 101.935 242.339 101.771 241.679 101.873C241.549 101.24 241.18 100.681 240.649 100.313C240.117 99.9441 239.465 99.7944 238.826 99.8945C238.187 99.9945 237.611 100.337 237.218 100.85C236.825 101.363 236.645 102.008 236.715 102.651L237.492 107.615L242.457 106.837C243.114 106.734 243.704 106.375 244.097 105.839C244.491 105.303 244.657 104.633 244.558 103.975Z" fill="#EBEBEB"/>
<path d="M193.551 61.3298C193.293 61.2486 193.021 61.2192 192.752 61.2432C192.482 61.2673 192.22 61.3443 191.98 61.4698C191.74 61.5953 191.527 61.767 191.354 61.9749C191.181 62.1827 191.05 62.4228 190.97 62.6812C190.711 62.6005 190.439 62.5714 190.169 62.5958C189.899 62.6201 189.637 62.6974 189.397 62.8231C189.157 62.9489 188.944 63.1207 188.771 63.3287C188.597 63.5367 188.466 63.7768 188.385 64.0354C188.305 64.294 188.276 64.566 188.3 64.8359C188.324 65.1057 188.401 65.3681 188.527 65.608C188.653 65.848 188.825 66.0609 189.033 66.2345C189.241 66.408 189.481 66.539 189.74 66.6197L193.678 67.8498L194.908 63.9113C195.07 63.3891 195.018 62.8238 194.764 62.3397C194.51 61.8556 194.073 61.4924 193.551 61.3298Z" fill="#F5F5F5"/>
<path d="M40.6786 10.9901C40.1556 10.8277 39.5896 10.8794 39.1046 11.1338C38.6196 11.3882 38.2553 11.8245 38.0916 12.347C37.8333 12.2666 37.5618 12.2379 37.2924 12.2624C37.0231 12.2869 36.7612 12.3643 36.5217 12.49C36.2823 12.6158 36.0699 12.7875 35.8968 12.9953C35.7237 13.2031 35.5932 13.443 35.5128 13.7012C35.4324 13.9595 35.4036 14.231 35.4282 14.5004C35.4527 14.7697 35.5301 15.0316 35.6558 15.2711C35.7816 15.5105 35.9532 15.7229 36.1611 15.896C36.3689 16.0691 36.6088 16.1996 36.867 16.28L40.8 17.5101L42.03 13.5716C42.1112 13.3134 42.1406 13.0417 42.1166 12.772C42.0926 12.5024 42.0156 12.2402 41.89 12.0004C41.7645 11.7606 41.5929 11.5479 41.385 11.3745C41.1771 11.2011 40.9371 11.0705 40.6786 10.9901Z" fill="#F5F5F5"/>
<path d="M102.194 103.064C102.19 99.7793 100.966 96.6127 98.7574 94.1803C96.5492 91.7479 93.5156 90.2234 90.246 89.9031C88.6137 86.2337 86.0423 83.0598 82.7914 80.7017C79.5405 78.3436 75.725 76.8848 71.7302 76.4724C67.7353 76.0601 63.7023 76.7088 60.0383 78.3531C56.3742 79.9974 53.2087 82.5791 50.8612 85.8377C48.9153 84.4193 46.5776 83.6386 44.1697 83.6033C41.7619 83.568 39.4023 84.2797 37.4156 85.6404C35.4288 87.0012 33.9126 88.9442 33.0754 91.2021C32.2383 93.46 32.1215 95.9219 32.7409 98.2489C30.9004 99.7988 29.3972 101.71 28.3242 103.863C27.2512 106.017 26.6311 108.367 26.5022 110.77C26.3733 113.173 26.7384 115.576 27.575 117.832C28.4115 120.088 29.7017 122.149 31.3658 123.887C33.03 125.625 35.0328 127.003 37.2505 127.936C39.4682 128.87 41.8537 129.338 44.2597 129.314C46.6657 129.289 49.0411 128.771 51.2391 127.792C53.4372 126.814 55.4112 125.395 57.0393 123.623C59.2057 126.438 62.1308 128.577 65.4707 129.787C68.8107 130.997 72.4267 131.229 75.8938 130.455C79.3609 129.681 82.535 127.934 85.0432 125.418C87.5514 122.902 89.2894 119.723 90.053 116.253C93.3619 115.978 96.4466 114.469 98.6954 112.026C100.944 109.584 102.193 106.385 102.194 103.064Z" fill="#EBEBEB"/>
<path d="M191.494 41.0086C191.495 38.7819 192.325 36.6356 193.822 34.987C195.319 33.3384 197.375 32.3054 199.591 32.0891C200.691 29.5966 202.431 27.4394 204.634 25.8364C206.836 24.2333 209.424 23.2415 212.134 22.9614C214.844 22.6813 217.58 23.1231 220.064 24.2417C222.548 25.3604 224.692 27.1162 226.278 29.331C227.598 28.3767 229.18 27.8535 230.808 27.833C232.436 27.8126 234.031 28.2959 235.374 29.2169C236.717 30.1378 237.743 31.4513 238.311 32.9776C238.878 34.5038 238.961 36.1683 238.546 37.743C239.798 38.7917 240.821 40.0864 241.553 41.5469C242.284 43.0073 242.707 44.6024 242.796 46.2332C242.886 47.864 242.639 49.4958 242.072 51.0274C241.505 52.559 240.629 53.9578 239.499 55.137C238.369 56.3163 237.009 57.2508 235.503 57.8828C233.997 58.5147 232.377 58.8305 230.744 58.8107C229.111 58.7909 227.499 58.4358 226.009 57.7675C224.519 57.0992 223.181 56.1319 222.08 54.9256C220.615 56.8349 218.635 58.2862 216.373 59.109C214.112 59.9318 211.662 60.092 209.312 59.5706C206.963 59.0492 204.811 57.868 203.109 56.1658C201.408 54.4636 200.227 52.311 199.707 49.9612C197.464 49.7728 195.374 48.7474 193.852 47.0887C192.331 45.43 191.489 43.2595 191.494 41.0086Z" fill="#F0F0F0"/>
<path d="M138.098 212.084C197.166 212.084 245.049 209.289 245.049 205.84C245.049 202.391 197.166 199.596 138.098 199.596C79.0305 199.596 31.1468 202.391 31.1468 205.84C31.1468 209.289 79.0305 212.084 138.098 212.084Z" fill="#F5F5F5"/>
<path d="M75.2754 191.78H45.3065C44.6047 191.772 43.9341 191.488 43.4404 190.99C42.9467 190.491 42.6698 189.817 42.6699 189.115V176.82C42.6712 176.192 42.8938 175.584 43.2987 175.104L77.1674 134.837C77.418 134.54 77.7305 134.301 78.083 134.137C78.4356 133.973 78.8196 133.888 79.2084 133.888H92.1877C92.8943 133.888 93.572 134.169 94.0716 134.669C94.5713 135.168 94.852 135.846 94.852 136.553V174.062C94.852 174.768 95.1327 175.446 95.6323 175.946C96.132 176.445 96.8096 176.726 97.5162 176.726H100.942C101.648 176.726 102.326 177.007 102.826 177.506C103.325 178.006 103.606 178.684 103.606 179.39V189.093C103.606 189.8 103.325 190.477 102.826 190.977C102.326 191.477 101.648 191.757 100.942 191.757H97.5162C96.8096 191.757 96.132 192.038 95.6323 192.538C95.1327 193.037 94.852 193.715 94.852 194.422V202.144C94.852 202.851 94.5713 203.529 94.0716 204.028C93.572 204.528 92.8943 204.809 92.1877 204.809H80.6039C79.8973 204.809 79.2197 204.528 78.72 204.028C78.2204 203.529 77.9397 202.851 77.9397 202.144V194.422C77.9339 193.719 77.6506 193.047 77.1516 192.552C76.6525 192.057 75.9782 191.78 75.2754 191.78ZM77.9397 174.884V159.88C77.946 159.493 77.8314 159.113 77.6119 158.793C77.3924 158.474 77.0788 158.231 76.7147 158.098C76.3507 157.965 75.9543 157.949 75.5807 158.052C75.2071 158.155 74.8748 158.372 74.63 158.672L61.8824 173.676C61.6519 173.947 61.5037 174.278 61.4554 174.63C61.407 174.983 61.4605 175.342 61.6096 175.665C61.7586 175.988 61.997 176.262 62.2965 176.454C62.596 176.645 62.9442 176.748 63.3 176.748H76.0532C76.2999 176.751 76.5447 176.705 76.7734 176.613C77.0022 176.52 77.2103 176.383 77.3858 176.21C77.5613 176.037 77.7006 175.83 77.7957 175.602C77.8907 175.375 77.9397 175.13 77.9397 174.884Z" fill="#263238"/>
<path d="M109.618 169.666C109.618 156.427 112.009 147.151 116.789 141.837C121.57 136.523 128.838 133.875 138.594 133.894C143.287 133.894 147.148 134.473 150.178 135.631C152.917 136.619 155.425 138.157 157.548 140.149C159.338 141.855 160.854 143.828 162.043 145.996C163.222 148.266 164.109 150.675 164.686 153.167C166.002 158.489 166.658 163.952 166.638 169.434C166.638 182.088 164.496 191.347 160.212 197.213C155.928 203.078 148.556 206.02 138.098 206.039C132.214 206.039 127.472 205.103 123.872 203.231C120.204 201.329 117.115 198.475 114.93 194.968C113.246 192.394 111.937 188.882 111.003 184.432C110.036 179.57 109.572 174.622 109.618 169.666ZM128.837 169.71C128.837 178.591 129.622 184.658 131.192 187.913C132.762 191.167 135.037 192.794 138.015 192.794C138.962 192.804 139.902 192.625 140.779 192.269C141.657 191.913 142.456 191.387 143.129 190.72C144.574 189.341 145.637 187.161 146.317 184.178C146.997 181.196 147.337 176.551 147.337 170.245C147.337 160.989 146.552 154.767 144.982 151.578C143.412 148.39 141.058 146.796 137.921 146.796C134.715 146.796 132.4 148.421 130.977 151.672C129.554 154.923 128.84 160.935 128.837 169.71Z" fill="#263238"/>
<path d="M205.223 191.78H175.26C174.553 191.78 173.876 191.499 173.376 190.999C172.876 190.5 172.596 189.822 172.596 189.115V176.82C172.595 176.193 172.816 175.585 173.219 175.104L207.093 134.837C207.343 134.54 207.654 134.301 208.006 134.137C208.357 133.973 208.741 133.888 209.129 133.888H222.113C222.82 133.888 223.498 134.169 223.997 134.669C224.497 135.168 224.778 135.846 224.778 136.553V174.062C224.775 174.415 224.842 174.765 224.976 175.092C225.109 175.419 225.307 175.716 225.556 175.966C225.805 176.216 226.102 176.414 226.429 176.548C226.755 176.682 227.105 176.75 227.458 176.748H230.878C231.585 176.748 232.263 177.029 232.762 177.529C233.262 178.028 233.543 178.706 233.543 179.412V189.115C233.543 189.822 233.262 190.5 232.762 190.999C232.263 191.499 231.585 191.78 230.878 191.78H227.458C226.752 191.78 226.074 192.06 225.575 192.56C225.075 193.06 224.794 193.737 224.794 194.444V202.166C224.794 202.873 224.514 203.551 224.014 204.05C223.514 204.55 222.837 204.831 222.13 204.831H210.546C209.84 204.831 209.162 204.55 208.662 204.05C208.163 203.551 207.882 202.873 207.882 202.166V194.444C207.882 193.738 207.602 193.061 207.104 192.562C206.605 192.062 205.929 191.781 205.223 191.78ZM207.887 174.884V159.88C207.887 159.499 207.77 159.127 207.551 158.815C207.333 158.503 207.025 158.265 206.667 158.133C206.309 158.002 205.92 157.983 205.552 158.079C205.183 158.175 204.853 158.382 204.605 158.672L191.852 173.676C191.622 173.946 191.474 174.276 191.426 174.628C191.377 174.979 191.429 175.337 191.577 175.66C191.725 175.983 191.961 176.256 192.259 176.449C192.557 176.642 192.904 176.746 193.259 176.748H206.006C206.253 176.75 206.497 176.704 206.725 176.611C206.953 176.518 207.161 176.381 207.336 176.208C207.51 176.035 207.649 175.828 207.744 175.601C207.839 175.374 207.887 175.13 207.887 174.884Z" fill="#263238"/>
<path d="M87.2508 141.103C86.7378 142.207 86.1973 143.199 85.6732 144.225L84.1287 147.287L82.5842 150.359C82.0657 151.391 81.5307 152.422 80.8963 153.437C80.9912 152.255 81.2188 151.088 81.5748 149.957C81.9131 148.817 82.3506 147.71 82.8821 146.647C83.4115 145.583 84.0394 144.571 84.7576 143.624C85.4675 142.672 86.3067 141.824 87.2508 141.103Z" fill="white"/>
<path d="M89.2145 143.696C88.7346 144.65 88.2382 145.549 87.7528 146.454L86.3241 149.157L84.8954 151.871C84.4155 152.781 83.9246 153.697 83.3399 154.59C83.4431 153.537 83.6632 152.5 83.9963 151.496C84.3187 150.49 84.7266 149.514 85.2154 148.578C85.7029 147.637 86.2812 146.747 86.9419 145.919C87.5907 145.074 88.3558 144.326 89.2145 143.696Z" fill="white"/>
<path d="M83.8529 140.017C83.4282 141.01 82.9759 141.942 82.5346 142.879L81.2383 145.687L79.942 148.5C79.5008 149.444 79.0539 150.392 78.5134 151.325C78.5639 150.257 78.736 149.198 79.0264 148.169C79.3028 147.136 79.672 146.13 80.1296 145.163C80.574 144.196 81.1077 143.273 81.7237 142.405C82.3212 141.516 83.0376 140.712 83.8529 140.017Z" fill="white"/>
<path d="M210.359 181.939C211.303 182.666 212.142 183.52 212.852 184.476C213.585 185.424 214.228 186.437 214.772 187.505C215.3 188.568 215.735 189.676 216.073 190.814C216.428 191.946 216.658 193.113 216.757 194.295C216.117 193.28 215.588 192.248 215.064 191.217L213.519 188.144L211.975 185.083C211.429 184.035 210.91 183.02 210.359 181.939Z" fill="white"/>
<path d="M208.417 184.531C209.271 185.159 210.033 185.902 210.684 186.738C211.346 187.567 211.924 188.46 212.411 189.402C212.904 190.336 213.312 191.313 213.63 192.32C213.967 193.323 214.189 194.361 214.292 195.415C213.707 194.521 213.216 193.605 212.731 192.695L211.302 189.981L209.873 187.278C209.388 186.401 208.891 185.486 208.417 184.531Z" fill="white"/>
<path d="M213.773 180.852C214.599 181.54 215.326 182.338 215.935 183.224C216.552 184.091 217.084 185.014 217.524 185.982C217.979 186.95 218.348 187.956 218.627 188.988C218.915 190.018 219.087 191.076 219.14 192.144C218.589 191.206 218.147 190.263 217.712 189.319L216.415 186.501L215.119 183.698C214.656 182.777 214.22 181.845 213.773 180.852Z" fill="white"/>
<path d="M165.193 197.776H172.518V199.64H167.934V201.047H172.187V202.85H167.934V204.604H172.651V206.607H165.193V197.776Z" fill="#263238"/>
<path d="M172.651 207.688H165.193C164.911 207.688 164.64 207.576 164.44 207.376C164.241 207.176 164.128 206.906 164.128 206.623V197.798C164.128 197.658 164.155 197.519 164.208 197.389C164.261 197.26 164.34 197.142 164.439 197.043C164.538 196.944 164.655 196.866 164.785 196.813C164.914 196.759 165.053 196.732 165.193 196.733H172.518C172.658 196.732 172.797 196.759 172.927 196.813C173.056 196.866 173.174 196.944 173.273 197.043C173.372 197.142 173.45 197.26 173.503 197.389C173.557 197.519 173.584 197.658 173.583 197.798V199.64C173.361 199.79 173.204 200.018 173.142 200.278C173.081 200.539 173.12 200.813 173.252 201.047V202.85C173.129 202.983 173.042 203.144 172.998 203.319C172.954 203.494 172.956 203.678 173.002 203.852C173.048 204.027 173.138 204.187 173.263 204.317C173.387 204.448 173.543 204.545 173.715 204.599V206.601C173.718 206.743 173.693 206.884 173.641 207.015C173.589 207.147 173.511 207.267 173.411 207.368C173.312 207.47 173.194 207.55 173.063 207.605C172.933 207.66 172.792 207.688 172.651 207.688ZM166.258 205.559H167.432C167.264 205.467 167.124 205.332 167.026 205.167C166.929 205.001 166.879 204.813 166.881 204.621V202.872C167.032 202.776 167.157 202.642 167.243 202.485C167.33 202.327 167.375 202.15 167.375 201.97C167.375 201.791 167.33 201.614 167.243 201.456C167.157 201.299 167.032 201.165 166.881 201.069V199.64C166.881 199.482 166.916 199.327 166.984 199.185C167.052 199.043 167.15 198.917 167.273 198.818H166.269L166.258 205.559Z" fill="#263238"/>
<path d="M174.162 206.623V197.798H178.718C179.371 197.774 180.023 197.847 180.655 198.013C181.104 198.147 181.493 198.431 181.758 198.818C181.954 199.099 182.09 199.417 182.158 199.753C182.226 200.088 182.223 200.435 182.151 200.769C182.079 201.104 181.939 201.421 181.74 201.699C181.54 201.977 181.285 202.211 180.991 202.387C180.692 202.555 180.368 202.674 180.031 202.74C180.283 202.814 180.522 202.924 180.743 203.065C180.906 203.202 181.053 203.357 181.179 203.529C181.323 203.701 181.452 203.886 181.565 204.08L182.889 206.645H179.8L178.338 203.942C178.221 203.683 178.052 203.45 177.841 203.258C177.646 203.122 177.412 203.051 177.174 203.054H176.931V206.645L174.162 206.623ZM176.92 201.361H178.073C178.317 201.34 178.558 201.299 178.796 201.24C178.975 201.206 179.134 201.105 179.242 200.958C179.369 200.784 179.428 200.57 179.41 200.355C179.392 200.141 179.297 199.94 179.143 199.789C178.836 199.605 178.478 199.526 178.123 199.563H176.92V201.361Z" fill="#263238"/>
<path d="M182.867 207.688H179.778C179.586 207.688 179.398 207.637 179.233 207.54C179.068 207.443 178.932 207.304 178.84 207.136L177.974 205.526V206.629C177.972 206.911 177.86 207.181 177.66 207.38C177.461 207.579 177.191 207.692 176.909 207.693H174.151C174.011 207.693 173.873 207.666 173.744 207.612C173.615 207.559 173.497 207.48 173.398 207.382C173.299 207.283 173.221 207.165 173.168 207.036C173.114 206.907 173.087 206.769 173.087 206.629V197.803C173.086 197.663 173.113 197.524 173.166 197.395C173.219 197.265 173.298 197.148 173.397 197.049C173.496 196.95 173.613 196.871 173.743 196.818C173.872 196.765 174.011 196.738 174.151 196.738H178.707C179.472 196.712 180.237 196.804 180.975 197.009C181.635 197.219 182.206 197.644 182.596 198.217C183.005 198.817 183.216 199.531 183.197 200.258C183.209 200.891 183.051 201.516 182.74 202.067C182.55 202.392 182.308 202.683 182.023 202.928C182.197 203.14 182.351 203.369 182.48 203.612L183.799 206.16C183.883 206.322 183.924 206.503 183.918 206.686C183.912 206.869 183.859 207.047 183.764 207.203C183.67 207.359 183.536 207.488 183.377 207.578C183.218 207.668 183.038 207.715 182.855 207.715L182.867 207.688ZM180.412 205.559H181.123L180.572 204.549C180.499 204.414 180.41 204.288 180.307 204.174C180.23 204.075 180.147 203.982 180.059 203.893C179.929 203.823 179.792 203.768 179.651 203.727C179.515 203.68 179.389 203.607 179.281 203.512L180.412 205.559ZM175.227 205.559H175.845V203.032C175.844 202.871 175.881 202.711 175.952 202.566C176.023 202.421 176.126 202.294 176.253 202.194C176.126 202.095 176.023 201.969 175.952 201.825C175.881 201.68 175.845 201.522 175.845 201.361V199.563C175.845 199.295 175.945 199.037 176.126 198.84H175.227V205.559ZM178.459 202.387C178.659 202.541 178.833 202.728 178.972 202.939C178.952 202.846 178.943 202.752 178.945 202.657C178.955 202.522 178.988 202.389 179.044 202.266H178.994C178.785 202.332 178.608 202.365 178.459 202.398V202.387ZM179.689 198.884L179.816 198.978C180.029 199.157 180.198 199.383 180.31 199.637C180.423 199.891 180.477 200.167 180.467 200.445C180.47 200.862 180.334 201.267 180.081 201.598C180.199 201.566 180.312 201.518 180.417 201.455C180.623 201.335 180.795 201.167 180.919 200.964C181.038 200.738 181.095 200.485 181.085 200.23C181.1 199.94 181.023 199.652 180.864 199.408C180.734 199.212 180.539 199.067 180.313 199C180.109 198.943 179.9 198.904 179.689 198.884Z" fill="#263238"/>
<path d="M183.777 206.623V197.798H188.333C188.987 197.774 189.641 197.846 190.275 198.013C190.724 198.146 191.114 198.431 191.378 198.818C191.574 199.099 191.71 199.417 191.778 199.753C191.846 200.088 191.843 200.435 191.771 200.769C191.699 201.104 191.559 201.421 191.36 201.699C191.16 201.977 190.905 202.212 190.611 202.387C190.312 202.555 189.988 202.674 189.651 202.74C189.903 202.814 190.142 202.924 190.363 203.065C190.528 203.201 190.677 203.357 190.804 203.529C190.945 203.702 191.073 203.887 191.185 204.08L192.509 206.645H189.398L187.936 203.942C187.82 203.682 187.651 203.449 187.439 203.258C187.245 203.12 187.011 203.048 186.772 203.054H186.529V206.645L183.777 206.623ZM186.535 201.361H187.688C187.931 201.34 188.173 201.3 188.41 201.24C188.589 201.206 188.749 201.105 188.857 200.958C188.972 200.812 189.032 200.631 189.028 200.445C189.035 200.323 189.015 200.2 188.968 200.086C188.921 199.973 188.849 199.871 188.758 199.789C188.451 199.605 188.093 199.526 187.737 199.563H186.535V201.361Z" fill="#263238"/>
<path d="M192.481 207.688H189.398C189.206 207.688 189.018 207.637 188.853 207.54C188.688 207.443 188.553 207.304 188.46 207.136L187.594 205.526V206.629C187.594 206.911 187.482 207.182 187.282 207.382C187.082 207.581 186.812 207.693 186.529 207.693H183.771C183.489 207.692 183.219 207.579 183.02 207.38C182.821 207.181 182.708 206.911 182.707 206.629V197.803C182.707 197.521 182.819 197.25 183.018 197.05C183.218 196.851 183.489 196.738 183.771 196.738H188.327C189.093 196.712 189.857 196.803 190.595 197.009C191.257 197.217 191.83 197.643 192.222 198.217C192.592 198.788 192.8 199.448 192.824 200.128C192.849 200.808 192.688 201.482 192.36 202.078C192.171 202.401 191.93 202.692 191.648 202.939C191.821 203.152 191.974 203.381 192.106 203.623L193.419 206.171C193.503 206.333 193.544 206.514 193.538 206.697C193.532 206.88 193.479 207.058 193.384 207.214C193.29 207.37 193.156 207.499 192.997 207.589C192.838 207.679 192.658 207.726 192.476 207.727L192.481 207.688ZM190.026 205.559H190.738L190.214 204.549C190.134 204.417 190.044 204.291 189.944 204.174C189.871 204.072 189.788 203.978 189.695 203.893C189.566 203.823 189.429 203.768 189.287 203.727C189.153 203.68 189.03 203.607 188.923 203.512L190.026 205.559ZM184.841 205.559H185.459V203.032C185.459 202.871 185.496 202.711 185.566 202.566C185.637 202.421 185.74 202.294 185.867 202.194C185.74 202.095 185.637 201.969 185.567 201.825C185.496 201.68 185.459 201.522 185.459 201.361V199.563C185.459 199.294 185.562 199.036 185.746 198.84H184.841V205.559ZM188.074 202.398C188.274 202.552 188.447 202.739 188.587 202.95C188.573 202.856 188.573 202.762 188.587 202.668C188.592 202.533 188.624 202.4 188.68 202.277H188.636C188.399 202.332 188.223 202.365 188.074 202.398ZM189.309 198.895L189.431 198.989C189.643 199.168 189.812 199.394 189.925 199.648C190.038 199.902 190.091 200.178 190.082 200.456C190.084 200.873 189.949 201.278 189.695 201.609C189.815 201.577 189.93 201.529 190.037 201.466C190.241 201.346 190.412 201.177 190.534 200.975C190.653 200.749 190.71 200.496 190.699 200.241C190.714 199.951 190.637 199.663 190.479 199.419C190.348 199.223 190.153 199.078 189.927 199.011C189.725 198.951 189.519 198.908 189.309 198.884V198.895Z" fill="#263238"/>
<path d="M192.801 202.205C192.74 201.589 192.817 200.967 193.025 200.384C193.233 199.801 193.568 199.272 194.005 198.833C194.442 198.395 194.971 198.059 195.554 197.849C196.136 197.64 196.758 197.562 197.374 197.621C197.992 197.582 198.611 197.666 199.195 197.87C199.78 198.074 200.318 198.392 200.777 198.807C201.188 199.25 201.506 199.772 201.711 200.34C201.915 200.909 202.003 201.513 201.969 202.117C202.003 202.994 201.825 203.866 201.45 204.66C201.109 205.312 200.584 205.849 199.939 206.204C199.18 206.597 198.332 206.787 197.479 206.756C196.628 206.784 195.782 206.622 195.002 206.281C194.332 205.95 193.778 205.423 193.413 204.77C192.983 203.985 192.772 203.099 192.801 202.205ZM195.559 202.205C195.499 202.885 195.674 203.564 196.055 204.13C196.232 204.313 196.443 204.459 196.676 204.558C196.91 204.658 197.161 204.709 197.415 204.709C197.669 204.709 197.92 204.658 198.154 204.558C198.388 204.459 198.599 204.313 198.775 204.13C199.16 203.517 199.331 202.793 199.26 202.073C199.312 201.423 199.132 200.776 198.753 200.247C198.579 200.06 198.367 199.913 198.13 199.818C197.894 199.723 197.639 199.681 197.385 199.695C197.134 199.686 196.885 199.734 196.656 199.835C196.426 199.936 196.223 200.088 196.061 200.28C195.666 200.845 195.481 201.529 195.537 202.216L195.559 202.205Z" fill="#263238"/>
<path d="M197.479 207.837C196.467 207.865 195.462 207.666 194.539 207.252C193.679 206.832 192.967 206.16 192.498 205.327C191.965 204.375 191.702 203.295 191.736 202.205C191.776 201.088 192.134 200.006 192.768 199.086C193.401 198.166 194.284 197.446 195.313 197.01C196.342 196.575 197.474 196.442 198.576 196.627C199.677 196.812 200.703 197.308 201.533 198.057C202.048 198.598 202.447 199.239 202.707 199.94C202.967 200.641 203.082 201.387 203.044 202.133C203.079 203.184 202.857 204.227 202.399 205.173C201.965 206.007 201.293 206.695 200.468 207.147C199.548 207.631 198.518 207.869 197.479 207.837ZM198.223 198.741C198.733 198.881 199.19 199.169 199.536 199.568C200.095 200.286 200.369 201.187 200.303 202.095C200.303 203.358 200.066 204.251 199.575 204.853C199.26 205.226 198.847 205.505 198.383 205.658C198.748 205.604 199.101 205.487 199.426 205.31C199.895 205.061 200.279 204.676 200.529 204.207C200.825 203.567 200.963 202.865 200.932 202.161C200.966 201.695 200.906 201.227 200.754 200.785C200.602 200.343 200.362 199.937 200.049 199.59C199.552 199.112 198.909 198.813 198.223 198.741ZM196.519 198.741C195.858 198.821 195.242 199.115 194.765 199.579C194.446 199.933 194.203 200.347 194.049 200.798C193.896 201.248 193.835 201.725 193.871 202.199C193.84 202.909 194 203.614 194.334 204.24C194.591 204.716 194.988 205.101 195.471 205.344C195.753 205.477 196.052 205.571 196.359 205.625C195.92 205.465 195.53 205.193 195.228 204.836C194.736 204.051 194.475 203.143 194.475 202.216C194.475 201.289 194.736 200.381 195.228 199.596C195.564 199.193 196.011 198.897 196.513 198.746L196.519 198.741ZM197.368 200.754C197.271 200.745 197.173 200.759 197.083 200.795C196.993 200.832 196.913 200.889 196.85 200.964C196.639 201.343 196.554 201.78 196.607 202.21C196.553 202.638 196.638 203.071 196.85 203.446C196.918 203.523 197.003 203.583 197.099 203.62C197.196 203.656 197.299 203.669 197.401 203.656C197.787 203.656 197.898 203.529 197.953 203.463C198.008 203.396 198.185 203.154 198.185 202.089C198.228 201.705 198.143 201.316 197.942 200.986C197.872 200.901 197.783 200.835 197.682 200.793C197.581 200.751 197.472 200.733 197.363 200.743L197.368 200.754Z" fill="#263238"/>
<path d="M203.48 206.623V197.798H208.036C208.689 197.774 209.341 197.847 209.972 198.013C210.422 198.147 210.811 198.431 211.076 198.818C211.272 199.099 211.408 199.417 211.476 199.753C211.543 200.088 211.541 200.435 211.469 200.769C211.397 201.104 211.257 201.421 211.058 201.699C210.858 201.977 210.603 202.211 210.309 202.387C210.01 202.555 209.686 202.674 209.349 202.74C209.601 202.814 209.84 202.924 210.061 203.065C210.224 203.202 210.371 203.357 210.496 203.529C210.641 203.701 210.77 203.886 210.883 204.08L212.206 206.645H209.117L207.656 203.942C207.538 203.683 207.369 203.45 207.159 203.258C206.964 203.122 206.73 203.051 206.492 203.054H206.249V206.645L203.48 206.623ZM206.238 201.361H207.391C207.635 201.34 207.876 201.299 208.114 201.24C208.293 201.206 208.452 201.105 208.56 200.958C208.687 200.784 208.746 200.57 208.728 200.355C208.71 200.141 208.615 199.94 208.461 199.789C208.154 199.605 207.796 199.526 207.441 199.563H206.238V201.361Z" fill="#263238"/>
<path d="M212.184 207.688H209.095C208.904 207.688 208.716 207.637 208.551 207.54C208.386 207.443 208.25 207.304 208.158 207.136L207.292 205.526V206.629C207.29 206.911 207.178 207.181 206.978 207.38C206.779 207.579 206.509 207.692 206.227 207.693H203.469C203.187 207.693 202.916 207.581 202.716 207.382C202.517 207.182 202.404 206.911 202.404 206.629V197.803C202.404 197.663 202.431 197.524 202.484 197.395C202.537 197.265 202.616 197.148 202.715 197.049C202.814 196.95 202.931 196.871 203.061 196.818C203.19 196.765 203.329 196.738 203.469 196.738H208.025C208.79 196.712 209.555 196.804 210.292 197.009C210.953 197.219 211.524 197.644 211.914 198.217C212.325 198.817 212.538 199.531 212.521 200.258C212.532 200.891 212.372 201.516 212.058 202.067C211.868 202.392 211.626 202.683 211.34 202.928C211.515 203.14 211.669 203.369 211.798 203.612L213.117 206.16C213.201 206.322 213.242 206.503 213.236 206.686C213.23 206.869 213.177 207.047 213.082 207.203C212.988 207.359 212.854 207.488 212.695 207.578C212.536 207.668 212.356 207.715 212.173 207.715L212.184 207.688ZM209.73 205.559H210.436L209.917 204.549C209.838 204.417 209.747 204.291 209.647 204.174C209.57 204.075 209.487 203.982 209.399 203.893C209.269 203.823 209.132 203.768 208.991 203.727C208.855 203.68 208.729 203.607 208.621 203.512L209.73 205.559ZM204.545 205.559H205.162V203.032C205.162 202.871 205.199 202.711 205.27 202.566C205.341 202.421 205.443 202.294 205.571 202.194C205.444 202.095 205.341 201.969 205.27 201.825C205.199 201.68 205.162 201.522 205.162 201.361V199.563C205.16 199.295 205.261 199.036 205.444 198.84H204.545V205.559ZM207.777 202.387C207.977 202.541 208.15 202.728 208.29 202.939C208.276 202.845 208.276 202.75 208.29 202.657C208.296 202.522 208.328 202.389 208.384 202.266H208.334C208.103 202.332 207.926 202.365 207.777 202.398V202.387ZM209.013 198.884L209.134 198.978C209.347 199.157 209.516 199.383 209.628 199.637C209.741 199.891 209.795 200.167 209.785 200.445C209.788 200.862 209.652 201.267 209.399 201.598C209.747 201.5 210.045 201.273 210.232 200.964C210.352 200.72 210.41 200.451 210.401 200.18C210.393 199.909 210.317 199.644 210.182 199.408C210.052 199.212 209.857 199.067 209.63 199C209.428 198.943 209.222 198.905 209.013 198.884Z" fill="#263238"/>
<path d="M165.193 197.776H172.518V199.64H167.934V201.047H172.187V202.85H167.934V204.604H172.651V206.607H165.193V197.776Z" fill="white"/>
<path d="M174.162 206.623V197.798H178.718C179.371 197.774 180.023 197.847 180.655 198.013C181.104 198.147 181.493 198.431 181.758 198.818C181.954 199.099 182.09 199.417 182.158 199.753C182.226 200.088 182.223 200.435 182.151 200.769C182.079 201.104 181.939 201.421 181.74 201.699C181.54 201.977 181.285 202.211 180.991 202.387C180.692 202.555 180.368 202.674 180.031 202.74C180.283 202.814 180.522 202.924 180.743 203.065C180.906 203.202 181.053 203.357 181.179 203.529C181.323 203.701 181.452 203.886 181.565 204.08L182.889 206.645H179.8L178.338 203.942C178.221 203.683 178.052 203.45 177.841 203.258C177.646 203.122 177.412 203.051 177.174 203.054H176.931V206.645L174.162 206.623ZM176.92 201.361H178.073C178.317 201.34 178.558 201.299 178.796 201.24C178.975 201.206 179.134 201.105 179.242 200.958C179.369 200.784 179.428 200.57 179.41 200.355C179.392 200.141 179.297 199.94 179.143 199.789C178.836 199.605 178.478 199.526 178.123 199.563H176.92V201.361Z" fill="white"/>
<path d="M183.777 206.623V197.798H188.333C188.987 197.774 189.641 197.846 190.275 198.013C190.724 198.146 191.114 198.431 191.378 198.818C191.574 199.099 191.71 199.417 191.778 199.753C191.846 200.088 191.843 200.435 191.771 200.769C191.699 201.104 191.559 201.421 191.36 201.699C191.16 201.977 190.905 202.212 190.611 202.387C190.312 202.555 189.988 202.674 189.651 202.74C189.903 202.814 190.142 202.924 190.363 203.065C190.528 203.201 190.677 203.357 190.804 203.529C190.945 203.702 191.073 203.887 191.185 204.08L192.509 206.645H189.398L187.936 203.942C187.82 203.682 187.651 203.449 187.439 203.258C187.245 203.12 187.011 203.048 186.772 203.054H186.529V206.645L183.777 206.623ZM186.535 201.361H187.688C187.931 201.34 188.173 201.3 188.41 201.24C188.589 201.206 188.749 201.105 188.857 200.958C188.972 200.812 189.032 200.631 189.028 200.445C189.035 200.323 189.015 200.2 188.968 200.086C188.921 199.973 188.849 199.871 188.758 199.789C188.451 199.605 188.093 199.526 187.737 199.563H186.535V201.361Z" fill="white"/>
<path d="M192.801 202.205C192.74 201.589 192.817 200.967 193.025 200.384C193.233 199.801 193.568 199.272 194.005 198.833C194.442 198.395 194.971 198.059 195.554 197.849C196.136 197.64 196.758 197.562 197.374 197.621C197.992 197.582 198.611 197.666 199.195 197.87C199.78 198.074 200.318 198.392 200.777 198.807C201.188 199.25 201.506 199.772 201.711 200.34C201.915 200.909 202.003 201.513 201.969 202.117C202.003 202.994 201.825 203.866 201.45 204.66C201.109 205.312 200.584 205.849 199.939 206.204C199.18 206.597 198.332 206.787 197.479 206.756C196.628 206.784 195.782 206.622 195.002 206.281C194.332 205.95 193.778 205.423 193.413 204.77C192.983 203.985 192.772 203.099 192.801 202.205ZM195.559 202.205C195.499 202.885 195.674 203.564 196.055 204.13C196.232 204.313 196.443 204.459 196.676 204.558C196.91 204.658 197.161 204.709 197.415 204.709C197.669 204.709 197.92 204.658 198.154 204.558C198.388 204.459 198.599 204.313 198.775 204.13C199.16 203.517 199.331 202.793 199.26 202.073C199.312 201.423 199.132 200.776 198.753 200.247C198.579 200.06 198.367 199.913 198.13 199.818C197.894 199.723 197.639 199.681 197.385 199.695C197.134 199.686 196.885 199.734 196.656 199.835C196.426 199.936 196.223 200.088 196.061 200.28C195.666 200.845 195.481 201.529 195.537 202.216L195.559 202.205Z" fill="white"/>
<path d="M203.48 206.623V197.798H208.036C208.689 197.774 209.341 197.847 209.972 198.013C210.422 198.147 210.811 198.431 211.076 198.818C211.272 199.099 211.408 199.417 211.476 199.753C211.543 200.088 211.541 200.435 211.469 200.769C211.397 201.104 211.257 201.421 211.058 201.699C210.858 201.977 210.603 202.211 210.309 202.387C210.01 202.555 209.686 202.674 209.349 202.74C209.601 202.814 209.84 202.924 210.061 203.065C210.224 203.202 210.371 203.357 210.496 203.529C210.641 203.701 210.77 203.886 210.883 204.08L212.206 206.645H209.117L207.656 203.942C207.538 203.683 207.369 203.45 207.159 203.258C206.964 203.122 206.73 203.051 206.492 203.054H206.249V206.645L203.48 206.623ZM206.238 201.361H207.391C207.635 201.34 207.876 201.299 208.114 201.24C208.293 201.206 208.452 201.105 208.56 200.958C208.687 200.784 208.746 200.57 208.728 200.355C208.71 200.141 208.615 199.94 208.461 199.789C208.154 199.605 207.796 199.526 207.441 199.563H206.238V201.361Z" fill="white"/>
<path d="M235.457 62.444C233.139 61.7074 230.717 61.3516 228.286 61.3905C225.925 61.4042 223.587 61.8549 221.391 62.7198C220.468 63.0822 219.601 63.5724 218.815 64.1761C218.738 64.2423 218.649 64.3029 218.589 64.3636C218.528 64.4243 218.467 64.4684 218.368 64.5732C218.269 64.678 218.009 64.9428 217.816 65.1248C217.464 65.5245 217.138 65.9464 216.84 66.388C215.607 68.2004 214.825 70.2804 214.556 72.4557C214.425 73.4858 214.438 74.5292 214.595 75.5557C214.669 76.0384 214.781 76.5143 214.931 76.9789C215.081 77.4443 215.266 77.8978 215.483 78.3358C216.088 79.4691 216.772 80.5585 217.53 81.5959C218.374 82.7984 219.35 84.1112 220.288 85.7164C221.379 87.494 222.157 89.4456 222.588 91.4862C222.808 92.6344 222.889 93.8048 222.831 94.9723C222.765 96.1175 222.563 97.2507 222.229 98.3482C221.585 100.451 220.515 102.398 219.085 104.068C218.38 104.889 217.594 105.637 216.741 106.302C215.917 106.951 215.034 107.522 214.104 108.007C212.31 108.932 210.382 109.571 208.389 109.899C206.525 110.208 204.631 110.296 202.746 110.164C200.949 110.036 199.168 109.744 197.423 109.292C195.785 108.867 194.174 108.346 192.597 107.731C189.53 106.556 186.75 105.21 184.097 104.068C181.639 102.94 179.069 102.075 176.429 101.487C175.233 101.244 174.015 101.122 172.794 101.123C171.556 101.127 170.321 101.245 169.104 101.476C166.539 101.999 164.059 102.876 161.734 104.079C156.913 106.512 152.456 110.219 147.845 114.102C147.011 114.807 145.931 115.154 144.843 115.066C143.754 114.979 142.744 114.464 142.033 113.634C141.322 112.805 140.968 111.728 141.048 110.639C141.129 109.549 141.637 108.536 142.461 107.819C147.012 103.853 151.805 99.6003 157.752 96.4231C160.775 94.7838 164.013 93.5769 167.372 92.8376C169.12 92.4684 170.898 92.2634 172.684 92.2253C174.49 92.1852 176.296 92.3275 178.073 92.6501C181.36 93.2931 184.568 94.2862 187.643 95.6122C190.567 96.8092 193.264 98.0393 195.868 98.977C197.117 99.4368 198.391 99.8235 199.685 100.135C200.876 100.422 202.091 100.595 203.315 100.654C205.466 100.83 207.623 100.412 209.553 99.4459C209.959 99.2202 210.343 98.958 210.701 98.6626C211.034 98.3889 211.341 98.0842 211.616 97.7524C212.145 97.1029 212.536 96.3521 212.764 95.546C212.866 95.1869 212.922 94.8161 212.929 94.4428C212.938 94.098 212.905 93.7535 212.83 93.4168C212.59 92.5048 212.203 91.6383 211.683 90.8518C211.07 89.8589 210.232 88.7447 209.311 87.4925C208.247 86.0929 207.287 84.6181 206.437 83.0797C205.956 82.1778 205.543 81.2411 205.201 80.2775C204.867 79.3098 204.609 78.3176 204.429 77.3099C204.079 75.3495 204.003 73.3503 204.203 71.369C204.587 67.5073 205.893 63.7941 208.009 60.541C208.541 59.7177 209.125 58.9291 209.757 58.1801C210.083 57.805 210.414 57.4354 210.761 57.0769C210.921 56.9059 211.153 56.6908 211.357 56.4977C211.561 56.3046 211.776 56.1281 211.986 55.9461C213.562 54.6562 215.315 53.6009 217.193 52.813C220.612 51.382 224.267 50.6001 227.972 50.5072C231.59 50.392 235.204 50.8633 238.673 51.9028C239.987 52.3882 241.068 53.3557 241.695 54.6088C242.322 55.862 242.449 57.3069 242.049 58.65C241.65 59.9932 240.754 61.1339 239.544 61.8406C238.334 62.5473 236.9 62.767 235.534 62.4551L235.457 62.444Z" fill="#263238"/>
<path d="M235.324 62.8908C232.36 61.8861 229.219 61.5104 226.102 61.7876C224.598 61.9244 223.116 62.243 221.689 62.7364C220.508 63.1395 219.403 63.7401 218.423 64.5126L218.109 64.7828C217.069 65.7374 215.693 66.24 214.283 66.18C212.873 66.12 211.545 65.5023 210.59 64.4629C209.636 63.4235 209.133 62.0474 209.193 60.6374C209.253 59.2275 209.871 57.8991 210.91 56.9445C212.843 55.0545 215.122 53.556 217.623 52.5316C219.875 51.5931 222.233 50.9354 224.645 50.5734C229.378 49.8782 234.205 50.1864 238.811 51.4781C240.339 51.8965 241.639 52.905 242.425 54.2819C243.21 55.6588 243.416 57.2912 242.997 58.82C242.579 60.3488 241.57 61.6487 240.193 62.4339C238.817 63.219 237.184 63.4251 235.655 63.0067L235.363 62.9184L235.324 62.8908Z" fill="#263238"/>
<path d="M132.472 131.158L134.518 134.346C132.461 135.422 130.309 135.262 128.114 135.262C127.182 130.948 132.472 131.158 132.472 131.158Z" fill="#263238"/>
<path d="M120 114.141C122.609 121.648 132.284 131.605 132.284 131.605C132.284 131.605 128.202 132.421 129.311 135.24H135.009L147.277 132.928C147.686 132.833 148.044 132.586 148.277 132.237C148.511 131.887 148.603 131.462 148.534 131.047L144.006 115.856L120 114.141Z" fill="#263238"/>
<path d="M167.587 118.438L168.69 122.911C170.852 122.056 172.678 121.472 173.616 119.464C172.529 116.673 167.587 118.438 167.587 118.438Z" fill="#263238"/>
<path d="M157.901 95.4853C161.762 102.402 169.904 119.271 169.904 119.271C169.904 119.271 174.085 119.447 173.528 122.387L157.316 126.392C156.955 126.517 156.562 126.52 156.199 126.399C155.836 126.278 155.523 126.041 155.308 125.724L143.724 115.917C150.046 112.056 157.404 101.923 157.901 95.4853Z" fill="#263238"/>
<path opacity="0.1" d="M150.388 109.998C148.489 112.297 146.258 114.299 143.769 115.939L147.078 118.636C150.647 115.443 151.662 112.023 150.388 109.998Z" fill="black"/>
<path d="M146.262 75.4013C150.763 76.168 169.457 73.6306 170.847 73.5645C170.996 72.5329 171.47 69.979 172.59 70.4313C173.71 70.8836 174.284 72.8143 174.057 73.741C176.711 73.2666 180.197 78.7054 176.231 83.1183C170.422 89.6383 149.202 90.6367 149.202 90.6367C149.202 90.6367 137.69 76.4825 146.262 75.4013Z" fill="#263238"/>
<path opacity="0.1" d="M147.663 84.0781C146.766 83.9788 145.858 84.0786 145.004 84.3704C146.236 86.5681 147.641 88.6636 149.207 90.6367C149.207 90.6367 153.488 90.4326 158.728 89.6273C155.843 87.5643 151.27 84.6573 147.663 84.0781Z" fill="black"/>
<path d="M174.057 73.7244C176.738 72.6212 178.614 72.0696 179.231 72.9908C179.849 73.9119 179.022 75.8481 176.429 76.3501C174.052 74.8607 174.057 73.7244 174.057 73.7244Z" fill="#263238"/>
<path d="M175.8 76.0191C178.625 75.9253 180.517 76.0908 180.765 77.1223C181.013 78.1538 179.59 79.6542 177.064 79.2184C175.403 77.0561 175.8 76.0191 175.8 76.0191Z" fill="#263238"/>
<path d="M177.582 78.904C179.397 79.748 180.511 80.4871 180.18 81.3752C179.849 82.2633 178.277 82.9473 176.871 81.7889C176.854 79.5715 177.582 78.904 177.582 78.904Z" fill="#263238"/>
<path d="M111.704 89.5059C109.63 93.5713 96.413 107.031 95.5249 108.112C94.6093 107.61 92.2815 106.457 91.9781 107.632C91.6747 108.807 92.8717 110.417 93.7322 110.776C91.7685 112.618 94.0246 118.658 99.9654 118.14C108.664 117.379 122.151 100.979 122.151 100.979C122.151 100.979 117.689 83.2783 111.704 89.5059Z" fill="#263238"/>
<path opacity="0.1" d="M117.815 95.8163C118.276 95.0401 118.899 94.3722 119.641 93.8581C120.669 96.1602 121.508 98.5418 122.151 100.979C122.151 100.979 119.432 104.289 115.648 108.001C115.719 104.46 116.122 99.0542 117.815 95.8163Z" fill="black"/>
<path d="M93.7322 110.776C91.2334 112.254 89.6834 113.44 90.053 114.483C90.4226 115.525 92.469 116.027 94.4217 114.251C94.6479 111.454 93.7322 110.776 93.7322 110.776Z" fill="#263238"/>
<path d="M94.521 113.551C92.7559 115.757 91.763 117.368 92.458 118.19C93.153 119.011 95.183 118.741 96.3468 116.469C95.6242 113.848 94.521 113.551 94.521 113.551Z" fill="#263238"/>
<path d="M95.7787 116.7C95.365 118.658 95.2933 120.01 96.2089 120.264C97.1246 120.517 98.6029 119.679 98.5036 117.87C96.7275 116.518 95.7787 116.7 95.7787 116.7Z" fill="#263238"/>
<path opacity="0.1" d="M144.017 115.911V115.878L136.68 115.327C136.531 118.487 140.211 120.49 145.153 119.64L144.017 115.911Z" fill="black"/>
<path d="M145.374 77.9387L130.238 84.4201L115.107 90.9015C115.107 90.9015 116.718 110.461 121.682 117.164C126.647 123.866 136.234 121.803 144.701 118.173C153.168 114.543 161.249 109.033 159.848 100.814C158.447 92.5949 145.374 77.9387 145.374 77.9387Z" fill="#263238"/>
<path opacity="0.2" d="M138.788 81.5959L130.546 85.1261L122.311 88.6564C122.432 87.0513 119.068 101.983 124.804 109.943C128.544 115.128 135.528 113.705 141.667 111.074C147.806 108.443 153.648 104.372 152.473 98.0889C150.675 88.4523 137.546 80.5919 138.788 81.5959Z" fill="white"/>
<path opacity="0.2" d="M136.167 83.9236L130.651 86.2735L125.163 88.6289C125.201 87.4705 123.298 98.2103 127.369 104.124C130.034 107.985 134.728 107.124 138.821 105.37C142.914 103.616 146.775 100.808 145.821 96.219C144.392 89.186 135.296 83.1569 136.167 83.9236Z" fill="white"/>
<path opacity="0.2" d="M97.5704 115.986C98.6138 115.568 99.0209 114.135 98.4798 112.786C97.9388 111.438 96.6544 110.684 95.6111 111.102C94.5678 111.521 94.1606 112.953 94.7017 114.302C95.2427 115.651 96.5271 116.405 97.5704 115.986Z" fill="white"/>
<path opacity="0.2" d="M176.424 78.7496C176.529 80.2003 175.707 81.4414 174.587 81.5076C173.467 81.5738 172.469 80.4816 172.38 79.0364C172.292 77.5912 173.098 76.3446 174.217 76.2784C175.337 76.2122 176.319 77.3044 176.424 78.7496Z" fill="white"/>
<path d="M97.108 42.4317C75.1154 26.8653 41.3239 36.4137 38.6707 42.2938C35.852 48.5545 66.4552 65.4172 73.9736 81.7117C84.9506 61.3188 97.108 42.4317 97.108 42.4317Z" fill="#263238"/>
<path opacity="0.5" d="M89.005 48.8138C71.5962 36.6784 47.0497 42.1393 45.461 46.2764C43.7676 50.6893 67.6798 64.1209 74.3598 76.2011C81.1721 61.9421 89.005 48.8138 89.005 48.8138Z" fill="#263238"/>
<path d="M91.1727 45.8682C86.2414 46.1992 82.0657 47.854 78.3865 51.7373C80.0444 51.2058 81.8115 51.1119 83.5164 51.4647C85.2213 51.8174 86.806 52.6049 88.1168 53.7507L91.1727 45.8682Z" fill="#263238"/>
<path d="M123.425 31.1513C133.994 -2.19889 171.636 -2.33128 179.138 2.71593C184.836 6.57719 160.571 21.9836 167.074 44.2244C145.186 36.7336 123.425 31.1513 123.425 31.1513Z" fill="#263238"/>
<path opacity="0.5" d="M133.371 30.4287C142.196 11.1224 162.782 3.39992 172.397 5.12645C181.487 6.74818 154.326 27.9465 159.875 46.6074C146.758 37.7816 133.371 30.4287 133.371 30.4287Z" fill="#263238"/>
<path d="M132.77 27.45C134.471 26.5287 136.338 25.9534 138.262 25.7574C140.187 25.5614 142.132 25.7486 143.984 26.3082C142.623 26.6132 141.364 27.2653 140.33 28.201C139.295 29.1366 138.521 30.3241 138.082 31.6478L132.77 27.45Z" fill="#263238"/>
<path d="M133.227 25.8835C134.354 24.8302 135.677 24.0102 137.122 23.4706C138.567 22.931 140.104 22.6825 141.645 22.7393C140.657 23.2498 139.817 24.0073 139.208 24.9381C138.599 25.8689 138.242 26.9413 138.17 28.0513L133.227 25.8835Z" fill="#263238"/>
<path d="M173.583 45.9289C179.143 58.9027 159.087 74.6125 131.164 86.5769C103.242 98.5412 78.0335 102.226 72.4567 89.2466C66.88 76.2673 80.3116 45.0573 108.234 33.093C136.156 21.1286 168.023 32.9495 173.583 45.9289Z" fill="#263238"/>
<path opacity="0.1" d="M162.562 47.1645C167.714 59.1951 152.004 72.9852 129.465 82.6384C106.927 92.2915 86.1145 94.1504 80.9625 82.1144C75.8105 70.0783 88.2658 48.7035 110.793 39.0558C133.321 29.4082 157.404 35.1284 162.562 47.1645Z" fill="black"/>
<path d="M117.231 64.7001C116.745 63.5638 118.229 62.262 120.353 61.3463C122.476 60.4307 124.451 60.2431 124.937 61.396C125.422 62.5488 124.677 65.5551 122.548 66.4708C120.419 67.3864 117.716 65.8364 117.231 64.7001Z" fill="#263238"/>
<path opacity="0.3" d="M121.737 74.8331C121.412 74.0609 122.973 72.9411 125.102 72.031C127.231 71.1208 129.118 70.7623 129.443 71.529C129.769 72.2957 128.71 74.5794 126.586 75.4896C124.462 76.3997 122.068 75.5999 121.737 74.8331Z" fill="black"/>
<path opacity="0.4" d="M82.336 65.4724C85.3753 56.768 92.3201 50.3087 99.4027 48.6924C111.345 45.9675 114.848 60.9216 109.078 71.2311C102.635 82.7708 88.4037 81.0111 87.0136 75.7323C85.0113 79.246 76.8695 81.0829 82.336 65.4724Z" fill="white"/>
<path d="M109.083 55.6703C109.083 55.6703 108.273 66.2667 102.679 70.0121C97.086 73.7575 88.8229 69.1681 88.8229 69.1681C88.8229 69.1681 89.6337 58.5772 95.227 54.8263C100.82 51.0754 109.083 55.6703 109.083 55.6703Z" fill="white"/>
<path d="M88.8229 69.113C88.7723 66.5179 89.1449 63.9319 89.9261 61.4567C90.3101 60.1899 90.8395 58.972 91.5037 57.8271C92.1744 56.6398 93.0546 55.5839 94.1018 54.7105C95.1809 53.8303 96.4561 53.2229 97.8196 52.9398C99.144 52.6585 100.509 52.6211 101.846 52.8295C104.436 53.21 106.907 54.1718 109.072 55.6427C106.72 54.7398 104.249 54.1824 101.736 53.9879C100.531 53.9072 99.3206 54.0189 98.1506 54.3188C97.0081 54.5829 95.9452 55.1163 95.0506 55.8744C94.1235 56.6284 93.3341 57.5373 92.7173 58.5607L92.4635 58.9413L92.2374 59.344C92.0939 59.6143 91.934 59.8956 91.7961 60.1549C91.5368 60.7065 91.2445 61.2581 91.0293 61.8483C90.0886 64.2027 89.3504 66.6331 88.8229 69.113Z" fill="#263238"/>
<path d="M124.004 49.2496C124.004 49.2496 132.234 55.9737 138.782 54.4898C145.33 53.006 147.729 43.8769 147.729 43.8769C147.729 43.8769 139.505 37.1528 132.952 38.6366C126.398 40.1205 124.004 49.2496 124.004 49.2496Z" fill="white"/>
<path d="M147.729 43.8769C145.569 42.5538 143.301 41.4153 140.95 40.4735C140.398 40.2418 139.775 40.0653 139.19 39.8667C138.898 39.7729 138.594 39.7068 138.297 39.624L137.855 39.5082L137.403 39.431C136.237 39.1738 135.036 39.1179 133.851 39.2655C132.685 39.3949 131.566 39.7974 130.585 40.4404C129.561 41.0785 128.647 41.8776 127.877 42.8068C126.283 44.7552 124.983 46.9257 124.016 49.2496C124.442 46.6672 125.449 44.2153 126.961 42.0787C127.734 40.9667 128.702 40.0042 129.818 39.2379C130.968 38.4447 132.293 37.9413 133.68 37.7706C135.033 37.6158 136.403 37.7074 137.723 38.0409C138.999 38.3502 140.236 38.8055 141.408 39.3979C143.744 40.5381 145.879 42.0509 147.729 43.8769Z" fill="#263238"/>
<path d="M103.825 68.098C107.031 67.3183 108.998 64.0873 108.218 60.8815C107.438 57.6757 104.207 55.7089 101.002 56.4886C97.7958 57.2683 95.8291 60.4993 96.6088 63.7051C97.3885 66.911 100.619 68.8777 103.825 68.098Z" fill="#263238"/>
<path d="M97.6155 62.6481C97.8127 63.1045 98.1407 63.4922 98.5581 63.7623C98.9755 64.0324 99.4636 64.1727 99.9607 64.1656C100.458 64.1584 100.942 64.0041 101.351 63.7221C101.761 63.4402 102.077 63.0432 102.261 62.5813C102.445 62.1194 102.488 61.6134 102.385 61.1271C102.281 60.6408 102.036 60.1961 101.68 59.8491C101.324 59.5021 100.873 59.2684 100.384 59.1776C99.8956 59.0867 99.3909 59.1427 98.9339 59.3385C98.6297 59.4688 98.3542 59.6579 98.1232 59.8949C97.8922 60.132 97.7103 60.4122 97.5878 60.7197C97.4653 61.0271 97.4047 61.3558 97.4095 61.6867C97.4143 62.0176 97.4843 62.3443 97.6155 62.6481Z" fill="white"/>
<path d="M138.736 51.3273C139.961 48.2642 138.472 44.7873 135.409 43.5615C132.346 42.3358 128.869 43.8252 127.643 46.8884C126.417 49.9515 127.907 53.4284 130.97 54.6541C134.033 55.8799 137.51 54.3905 138.736 51.3273Z" fill="#263238"/>
<path d="M128.39 49.4592C128.587 49.9156 128.915 50.3033 129.332 50.5734C129.75 50.8434 130.238 50.9838 130.735 50.9766C131.232 50.9695 131.716 50.8152 132.125 50.5332C132.535 50.2512 132.852 49.8542 133.036 49.3924C133.22 48.9305 133.263 48.4245 133.159 47.9382C133.056 47.4519 132.81 47.0072 132.454 46.6602C132.098 46.3132 131.647 46.0795 131.159 45.9886C130.67 45.8977 130.165 45.9537 129.708 46.1495C129.403 46.2793 129.127 46.4681 128.896 46.705C128.665 46.9419 128.482 47.2222 128.36 47.5299C128.237 47.8375 128.177 48.1664 128.182 48.4975C128.187 48.8286 128.258 49.1555 128.39 49.4592Z" fill="white"/>
<path d="M103.292 62.6591C103.371 62.8409 103.502 62.9951 103.669 63.1023C103.836 63.2095 104.031 63.2649 104.229 63.2615C104.427 63.2581 104.62 63.196 104.783 63.0832C104.946 62.9703 105.072 62.8116 105.145 62.6272C105.218 62.4428 105.235 62.241 105.193 62.0471C105.152 61.8532 105.054 61.6759 104.911 61.5377C104.769 61.3995 104.589 61.3066 104.394 61.2705C104.199 61.2345 103.998 61.257 103.816 61.3353C103.571 61.4419 103.379 61.641 103.28 61.8891C103.182 62.1372 103.186 62.414 103.292 62.6591Z" fill="white"/>
<path d="M134.066 49.4702C134.142 49.6529 134.271 49.809 134.436 49.9187C134.6 50.0285 134.794 50.0871 134.992 50.0872C135.19 50.0872 135.383 50.0287 135.548 49.919C135.713 49.8094 135.842 49.6534 135.918 49.4707C135.995 49.2881 136.015 49.0869 135.978 48.8925C135.94 48.6981 135.846 48.5192 135.707 48.3783C135.568 48.2373 135.39 48.1406 135.196 48.1003C135.003 48.06 134.801 48.078 134.617 48.1519C134.494 48.2009 134.381 48.2742 134.286 48.3674C134.191 48.4607 134.115 48.572 134.064 48.6948C134.012 48.8177 133.986 48.9496 133.986 49.0827C133.987 49.2159 134.014 49.3476 134.066 49.4702Z" fill="white"/>
<path d="M130.861 68.2855C130.558 68.4786 130.254 68.6772 129.94 68.8371C129.625 68.9971 129.278 69.1516 128.93 69.2784C128.221 69.5266 127.476 69.6589 126.724 69.6701C125.951 69.6593 125.187 69.4943 124.479 69.1847C123.75 68.8649 123.103 68.384 122.587 67.7781L123.486 67.3919C123.566 68.185 123.468 68.9859 123.199 69.7363C122.934 70.4622 122.527 71.1279 122.002 71.6945C121.477 72.2316 120.868 72.6789 120.198 73.0183C119.868 73.1772 119.529 73.319 119.183 73.4431C118.83 73.5479 118.477 73.6361 118.13 73.7189C118.444 73.5313 118.759 73.3603 119.068 73.1673C119.376 72.9742 119.663 72.7977 119.939 72.577C120.485 72.1712 120.976 71.6966 121.401 71.1649C121.799 70.6387 122.101 70.0469 122.294 69.4163C122.39 69.1051 122.457 68.7856 122.493 68.4621C122.529 68.1542 122.529 67.8432 122.493 67.5353C122.48 67.4058 122.518 67.2762 122.598 67.1736C122.678 67.0709 122.795 67.0029 122.923 66.9837C123.011 66.9724 123.1 66.9838 123.182 67.0166C123.264 67.0494 123.336 67.1027 123.392 67.1713C123.593 67.4081 123.816 67.6243 124.06 67.8167C124.321 68.0077 124.598 68.1774 124.887 68.3242C125.478 68.6141 126.114 68.8006 126.768 68.8758C127.447 68.9369 128.132 68.9073 128.803 68.7875C129.151 68.7434 129.487 68.6331 129.835 68.5669C130.182 68.5007 130.513 68.3848 130.861 68.2855Z" fill="#263238"/>
<path d="M122.989 67.9987C122.891 67.9978 122.795 67.9687 122.713 67.9149C122.631 67.8612 122.566 67.7849 122.526 67.6953L120.998 64.1044C120.947 63.9822 120.946 63.8445 120.995 63.7215C121.045 63.5986 121.141 63.5002 121.263 63.448C121.324 63.4208 121.389 63.4061 121.456 63.4048C121.522 63.4035 121.588 63.4155 121.65 63.4402C121.712 63.4649 121.768 63.5018 121.815 63.5486C121.862 63.5954 121.9 63.6512 121.925 63.7127L123.464 67.2982C123.497 67.3747 123.51 67.4583 123.503 67.5413C123.495 67.6243 123.468 67.7042 123.422 67.7737C123.376 67.8432 123.313 67.9002 123.239 67.9394C123.166 67.9787 123.084 67.9991 123.001 67.9987H122.989Z" fill="#263238"/>
<path d="M72.8539 75.655C68.3803 77.7567 65.1314 82.2247 64.3205 87.5146C68.27 82.6935 72.8759 84.1112 72.8759 84.1112L72.8539 75.655Z" fill="#263238"/>
<path d="M73.3117 88.6895C72.5309 90.4666 72.1956 92.4073 72.335 94.3433C72.4744 96.2793 73.0842 98.1521 74.1115 99.7989C74.0674 95.0551 77.4543 93.643 77.4543 93.643L73.3117 88.6895Z" fill="#263238"/>
<path d="M73.0524 81.4083C68.5458 84.7731 65.9642 90.4933 66.2345 96.583C69.5442 90.3002 75.0051 90.8353 75.0051 90.8353L73.0524 81.4083Z" fill="#263238"/>
<path d="M163.472 36.8273C168.078 35.0401 173.539 35.7903 177.946 38.8297C171.73 38.3663 169.578 42.6909 169.578 42.6909L163.472 36.8273Z" fill="#263238"/>
<path d="M171.117 45.9289C174.83 45.3276 178.878 45.7965 181.361 48.2125C178.313 48.2107 175.364 49.2852 173.031 51.2464L171.117 45.9289Z" fill="#263238"/>
<path d="M169.876 45.3883C173.246 47.0431 176.258 49.8012 176.865 53.2156C174.391 51.4347 171.366 50.5866 168.326 50.8216L169.876 45.3883Z" fill="#263238"/>
<path d="M167.51 40.9424C173.053 39.9991 178.972 42.0787 183.197 46.4584C176.369 44.5223 172.987 48.8414 172.987 48.8414L167.51 40.9424Z" fill="#263238"/>
<path d="M105.002 35.5531C104.792 32.431 106.298 29.7447 110.027 26.9701C109.243 31.4271 112.47 32.5414 112.47 32.5414L105.002 35.5531Z" fill="#263238"/>
<path d="M109.072 33.8156C109.812 30.186 113.529 26.6447 118.941 24.3665C115.079 28.5257 118.19 31.1072 118.19 31.1072L109.072 33.8156Z" fill="#263238"/>
<path d="M78.2983 98.9991C78.2491 98.9972 78.2015 98.9819 78.1604 98.955C78.133 98.9367 78.1095 98.9131 78.0914 98.8856C78.0732 98.8582 78.0607 98.8274 78.0545 98.7951C78.0483 98.7627 78.0487 98.7295 78.0555 98.6973C78.0623 98.6651 78.0754 98.6345 78.0942 98.6074C92.7173 76.7527 119.327 68.1311 119.592 68.0484C119.656 68.0291 119.725 68.0356 119.785 68.0665C119.845 68.0973 119.89 68.1502 119.912 68.2138C119.931 68.2775 119.924 68.3461 119.893 68.4049C119.862 68.4636 119.809 68.5079 119.746 68.5283C119.481 68.611 93.0372 77.183 78.5079 98.8667C78.4885 98.9059 78.4587 98.9391 78.4217 98.9625C78.3847 98.9858 78.342 98.9985 78.2983 98.9991Z" fill="#263238"/>
<path d="M82.3249 112.767C82.2976 112.772 82.2695 112.772 82.2422 112.767C82.1787 112.746 82.1262 112.7 82.0962 112.64C82.0663 112.58 82.0612 112.511 82.0822 112.447C92.1766 82.9638 118.599 70.1886 118.863 70.0672C118.923 70.0388 118.991 70.035 119.053 70.0567C119.115 70.0784 119.166 70.1239 119.194 70.1831C119.209 70.2127 119.218 70.245 119.22 70.2781C119.223 70.3112 119.218 70.3444 119.208 70.3758C119.197 70.4071 119.18 70.436 119.158 70.4607C119.135 70.4854 119.109 70.5054 119.079 70.5196C118.814 70.6464 92.6014 83.3334 82.5621 112.613C82.5418 112.659 82.5086 112.698 82.4665 112.725C82.4244 112.753 82.3752 112.767 82.3249 112.767Z" fill="#263238"/>
<path d="M125.852 65.8916C125.808 65.8925 125.765 65.8812 125.727 65.8588C125.689 65.8363 125.658 65.8038 125.637 65.7647C125.62 65.7367 125.608 65.7054 125.603 65.6727C125.598 65.6401 125.599 65.6067 125.608 65.5747C125.616 65.5426 125.631 65.5126 125.651 65.4865C125.671 65.4604 125.697 65.4387 125.725 65.4227C125.968 65.2793 150.278 51.4505 176.28 55.389C176.313 55.393 176.344 55.4035 176.373 55.42C176.401 55.4365 176.426 55.4585 176.445 55.4848C176.465 55.5111 176.479 55.5411 176.487 55.573C176.494 55.6049 176.495 55.638 176.49 55.6703C176.478 55.7356 176.442 55.7939 176.388 55.8338C176.335 55.8736 176.269 55.8921 176.203 55.8854C150.382 51.969 126.222 65.7151 126.007 65.8585C125.96 65.8857 125.906 65.8973 125.852 65.8916Z" fill="#263238"/>
<path d="M178.023 67.745C177.998 67.7507 177.972 67.7507 177.946 67.745C147.166 57.816 128.075 66.6418 127.882 66.7411C127.822 66.7696 127.753 66.7731 127.691 66.7509C127.628 66.7286 127.577 66.6824 127.549 66.6225C127.52 66.5625 127.516 66.4936 127.539 66.431C127.561 66.3684 127.607 66.3173 127.667 66.2887C127.855 66.195 147.111 57.2644 178.101 67.2651C178.163 67.2877 178.215 67.3335 178.245 67.393C178.274 67.4526 178.28 67.5214 178.261 67.585C178.242 67.6329 178.21 67.674 178.167 67.7026C178.125 67.7313 178.075 67.746 178.023 67.745Z" fill="#263238"/>
<path d="M121.083 202.541C125.838 197.407 125.53 189.39 120.395 184.635C115.261 179.881 107.244 180.189 102.49 185.323C97.7352 190.458 98.0431 198.474 103.178 203.229C108.312 207.983 116.329 207.675 121.083 202.541Z" fill="#263238"/>
<path d="M147.337 207.153C141.06 207.153 138.843 204.775 136.702 202.481C135.994 201.679 135.217 200.941 134.38 200.274C131.17 197.825 126.106 196.705 123.552 197.88C123.433 197.9 123.311 197.88 123.204 197.824C123.097 197.767 123.012 197.678 122.961 197.568C122.91 197.458 122.897 197.335 122.923 197.217C122.949 197.099 123.013 196.993 123.105 196.915C126.029 195.575 131.484 196.727 135.026 199.425C135.911 200.135 136.734 200.919 137.486 201.769C139.56 204.003 141.523 206.11 147.337 206.11C148.756 206.148 150.159 205.8 151.396 205.105C152.633 204.41 153.659 203.392 154.365 202.161C154.948 201.194 155.262 200.09 155.277 198.962C155.291 197.833 155.005 196.721 154.448 195.74C153.129 193.616 150.415 192.535 146.797 192.706C146.716 192.732 146.631 192.739 146.547 192.726C146.464 192.713 146.384 192.682 146.314 192.633C146.245 192.585 146.188 192.521 146.147 192.447C146.106 192.373 146.083 192.291 146.079 192.206C146.075 192.122 146.09 192.038 146.124 191.96C146.158 191.882 146.209 191.814 146.274 191.759C146.338 191.705 146.415 191.666 146.497 191.645C146.579 191.625 146.665 191.624 146.747 191.642C150.768 191.46 153.824 192.712 155.352 195.177C156.009 196.321 156.35 197.618 156.34 198.936C156.33 200.254 155.97 201.546 155.297 202.679C154.497 204.074 153.335 205.226 151.934 206.013C150.533 206.801 148.944 207.195 147.337 207.153Z" fill="#263238"/>
<path d="M117.137 203.612C110.461 203.544 104.026 201.104 98.9835 196.727C98.9182 196.626 98.8879 196.506 98.8972 196.386C98.9065 196.266 98.9548 196.152 99.0349 196.062C99.115 195.972 99.2223 195.911 99.3405 195.887C99.4587 195.864 99.5813 195.88 99.6896 195.933C104.102 199.872 111.979 203.601 120.767 202.277C120.844 202.243 120.928 202.227 121.013 202.231C121.097 202.235 121.18 202.258 121.254 202.299C121.328 202.34 121.392 202.397 121.44 202.467C121.488 202.536 121.52 202.616 121.533 202.699C121.546 202.783 121.539 202.868 121.513 202.949C121.488 203.03 121.444 203.103 121.385 203.164C121.327 203.225 121.255 203.272 121.175 203.301C121.096 203.33 121.011 203.34 120.926 203.33C119.672 203.518 118.405 203.612 117.137 203.612Z" fill="#263238"/>
<path d="M115.747 205.189C109.243 205.189 103.689 202.63 98.8401 197.411C98.7455 197.309 98.6929 197.175 98.6929 197.036C98.6929 196.897 98.7455 196.763 98.8401 196.661C98.9424 196.565 99.0775 196.512 99.2179 196.512C99.3584 196.512 99.4935 196.565 99.5958 196.661C104.963 202.442 111.235 204.809 118.764 203.915C118.843 203.882 118.928 203.868 119.013 203.873C119.098 203.879 119.181 203.904 119.255 203.947C119.329 203.99 119.391 204.049 119.438 204.121C119.485 204.192 119.515 204.273 119.525 204.358C119.535 204.442 119.526 204.528 119.497 204.609C119.468 204.689 119.421 204.762 119.36 204.821C119.299 204.88 119.224 204.924 119.143 204.95C119.062 204.975 118.975 204.982 118.891 204.968C117.848 205.105 116.798 205.179 115.747 205.189Z" fill="#263238"/>
<path d="M106.138 205.829C106.001 205.83 105.868 205.779 105.766 205.687C105.664 205.596 105.6 205.469 105.586 205.333C105.123 199.11 107.269 189.204 113.094 181.1C113.187 181.024 113.304 180.981 113.424 180.977C113.545 180.973 113.664 181.009 113.762 181.079C113.86 181.149 113.933 181.25 113.969 181.365C114.004 181.481 114.001 181.605 113.96 181.718C108.311 189.612 106.221 199.226 106.656 205.255C106.657 205.392 106.607 205.524 106.517 205.625C106.426 205.727 106.301 205.792 106.165 205.807L106.138 205.829Z" fill="#263238"/>
<path d="M100.848 200.892C100.747 200.891 100.647 200.863 100.561 200.809C100.446 200.731 100.365 200.611 100.334 200.475C100.303 200.339 100.325 200.196 100.396 200.076C102.249 197.147 109.133 187.323 119.923 183.875C120.056 183.837 120.2 183.852 120.323 183.915C120.447 183.979 120.542 184.086 120.59 184.217C120.628 184.351 120.613 184.494 120.55 184.618C120.486 184.742 120.379 184.837 120.248 184.884C109.801 188.227 103.098 197.792 101.295 200.644C101.246 200.718 101.18 200.78 101.102 200.823C101.024 200.866 100.937 200.89 100.848 200.892Z" fill="#263238"/>
<path d="M100.848 200.892C100.78 200.893 100.712 200.88 100.649 200.853C100.522 200.797 100.42 200.695 100.365 200.567C100.31 200.439 100.305 200.295 100.351 200.164C101.983 196.153 104.45 192.536 107.589 189.553C110.728 186.57 114.466 184.291 118.555 182.866C118.675 182.857 118.795 182.888 118.896 182.955C118.998 183.021 119.074 183.119 119.114 183.233C119.154 183.347 119.156 183.471 119.119 183.586C119.081 183.701 119.007 183.801 118.908 183.869C114.959 185.242 111.348 187.441 108.315 190.319C105.283 193.198 102.899 196.689 101.322 200.561C101.282 200.655 101.216 200.735 101.132 200.794C101.048 200.852 100.95 200.886 100.848 200.892Z" fill="#263238"/>
<path d="M104.566 204.902C104.432 204.904 104.302 204.856 104.201 204.769C104.099 204.682 104.033 204.56 104.014 204.428C102.679 192.932 106.452 186.357 110.733 180.968C110.823 180.862 110.95 180.794 111.088 180.778C111.226 180.762 111.365 180.798 111.477 180.88C111.585 180.97 111.654 181.098 111.67 181.237C111.686 181.377 111.649 181.517 111.566 181.63C107.429 186.843 103.782 193.214 105.073 204.307C105.085 204.446 105.042 204.585 104.955 204.694C104.868 204.804 104.743 204.876 104.604 204.897L104.566 204.902Z" fill="#263238"/>
<path d="M103.087 203.7C102.972 203.697 102.861 203.658 102.769 203.589C102.677 203.52 102.609 203.424 102.574 203.314C100.92 197.218 102.15 187.687 108.901 181.15C109.003 181.055 109.137 181.003 109.276 181.003C109.416 181.003 109.55 181.055 109.652 181.15C109.748 181.252 109.801 181.387 109.801 181.528C109.801 181.668 109.748 181.803 109.652 181.906C103.501 187.858 101.957 197.031 103.611 203.016C103.645 203.152 103.625 203.295 103.556 203.417C103.488 203.539 103.375 203.63 103.242 203.672L103.087 203.7Z" fill="#263238"/>
<path d="M124.308 196.253C124.197 196.252 124.09 196.217 123.999 196.154C116.111 190.478 106.491 188.387 100.462 188.839C100.342 188.817 100.233 188.756 100.151 188.665C100.07 188.574 100.021 188.459 100.012 188.337C100.003 188.215 100.035 188.094 100.102 187.992C100.17 187.891 100.269 187.814 100.385 187.775C106.607 187.317 116.514 189.457 124.622 195.288C124.704 195.359 124.763 195.452 124.791 195.557C124.82 195.661 124.818 195.772 124.784 195.874C124.751 195.977 124.688 196.068 124.603 196.135C124.518 196.203 124.416 196.244 124.308 196.253Z" fill="#263238"/>
<path d="M124.418 194.78C124.344 194.782 124.27 194.767 124.203 194.736C117.131 191.597 106.43 191.184 99.3145 193.765C99.2453 193.815 99.1656 193.848 99.0816 193.861C98.9977 193.875 98.9117 193.869 98.8304 193.844C98.7491 193.819 98.6747 193.775 98.6131 193.716C98.5515 193.658 98.5042 193.586 98.4751 193.506C98.4459 193.426 98.4357 193.34 98.4451 193.256C98.4545 193.171 98.4834 193.09 98.5294 193.018C98.5754 192.947 98.6374 192.887 98.7104 192.843C98.7835 192.8 98.8656 192.774 98.9504 192.767C106.298 190.097 117.336 190.527 124.633 193.765C124.758 193.826 124.856 193.933 124.906 194.063C124.956 194.192 124.955 194.337 124.904 194.466C124.86 194.558 124.791 194.636 124.705 194.692C124.62 194.747 124.52 194.778 124.418 194.78Z" fill="#263238"/>
<path d="M124.396 193.291C124.323 193.29 124.25 193.274 124.183 193.245C124.116 193.216 124.055 193.173 124.004 193.12C118.759 187.416 111.963 185.397 101.94 186.55C101.861 186.583 101.776 186.598 101.691 186.592C101.606 186.586 101.523 186.561 101.449 186.518C101.376 186.475 101.313 186.416 101.266 186.345C101.219 186.273 101.19 186.192 101.179 186.107C101.169 186.023 101.179 185.937 101.207 185.857C101.236 185.776 101.283 185.703 101.344 185.644C101.406 185.585 101.48 185.541 101.561 185.515C101.643 185.49 101.729 185.483 101.813 185.497C112.051 184.305 119.343 186.501 124.766 192.403C124.827 192.481 124.865 192.575 124.877 192.674C124.89 192.772 124.875 192.873 124.835 192.964C124.795 193.055 124.731 193.133 124.649 193.191C124.568 193.248 124.473 193.283 124.374 193.291H124.396Z" fill="#263238"/>
<path d="M123.999 191.129C123.858 191.125 123.724 191.068 123.624 190.969C117.065 184.427 107.815 183.483 103.628 184.901C103.507 184.909 103.386 184.877 103.285 184.809C103.184 184.742 103.108 184.643 103.07 184.528C103.031 184.412 103.031 184.288 103.07 184.173C103.109 184.058 103.185 183.959 103.286 183.892C107.726 182.386 117.501 183.34 124.374 190.213C124.469 190.315 124.521 190.449 124.521 190.588C124.521 190.727 124.469 190.861 124.374 190.963C124.275 191.064 124.141 191.124 123.999 191.129Z" fill="#263238"/>
<path d="M121.55 202.569C121.5 202.577 121.45 202.577 121.401 202.569C108.714 198.813 99.3862 190.285 99.2979 190.196C99.2346 190.094 99.2063 189.974 99.2175 189.854C99.2287 189.735 99.2786 189.622 99.3598 189.533C99.441 189.445 99.549 189.385 99.6673 189.363C99.7855 189.341 99.9076 189.359 100.015 189.413C100.109 189.501 109.265 197.864 121.704 201.549C121.81 201.599 121.898 201.683 121.953 201.787C122.008 201.891 122.029 202.01 122.011 202.127C121.994 202.243 121.94 202.351 121.857 202.435C121.774 202.518 121.666 202.573 121.55 202.591V202.569Z" fill="#263238"/>
<path d="M121.804 202.244C121.731 202.243 121.66 202.228 121.594 202.199C113.917 198.772 106.563 194.664 99.6178 189.926C99.5372 189.898 99.4643 189.851 99.4047 189.79C99.3451 189.729 99.3006 189.655 99.2746 189.573C99.2486 189.492 99.2418 189.406 99.2549 189.321C99.2679 189.237 99.3003 189.157 99.3496 189.087C99.3989 189.017 99.4637 188.96 99.539 188.92C99.6142 188.879 99.6978 188.857 99.7832 188.854C99.8685 188.852 99.9533 188.869 100.031 188.905C100.108 188.94 100.177 188.994 100.23 189.06C107.114 193.756 114.404 197.827 122.013 201.223C122.111 201.282 122.189 201.37 122.235 201.474C122.281 201.579 122.294 201.696 122.271 201.808C122.248 201.92 122.19 202.022 122.107 202.1C122.023 202.178 121.917 202.228 121.804 202.244Z" fill="#263238"/>
<path d="M122.272 201.587C122.186 201.589 122.1 201.568 122.024 201.526C111.174 195.69 99.7999 190.025 99.6896 189.97C99.5994 189.89 99.538 189.783 99.5148 189.664C99.4915 189.546 99.5078 189.423 99.561 189.315C99.6142 189.206 99.7014 189.119 99.8093 189.065C99.9173 189.011 100.04 188.994 100.158 189.016C100.274 189.071 111.665 194.747 122.526 200.6C122.617 200.664 122.687 200.755 122.725 200.859C122.764 200.964 122.77 201.078 122.743 201.186C122.715 201.294 122.655 201.392 122.571 201.465C122.488 201.539 122.383 201.585 122.272 201.598V201.587Z" fill="#263238"/>
<path d="M122.653 201.002C122.535 201.005 122.42 200.966 122.328 200.892C112.476 193.17 100.092 189.584 99.9654 189.551C99.8606 189.489 99.7793 189.394 99.7342 189.281C99.6891 189.167 99.6828 189.043 99.7162 188.925C99.7496 188.808 99.8208 188.705 99.9188 188.633C100.017 188.561 100.136 188.523 100.258 188.525C100.385 188.564 112.945 192.193 122.984 200.054C123.09 200.144 123.158 200.271 123.174 200.409C123.19 200.547 123.154 200.686 123.072 200.798C123.023 200.863 122.96 200.915 122.887 200.95C122.814 200.986 122.734 201.003 122.653 201.002Z" fill="#263238"/>
<path d="M123.668 198.862C123.546 198.862 123.428 198.821 123.331 198.746C114.307 191.333 100.164 189.584 100.043 189.568C99.9294 189.523 99.8342 189.442 99.7719 189.337C99.7096 189.232 99.6836 189.11 99.6981 188.989C99.7126 188.868 99.7667 188.756 99.852 188.669C99.9372 188.582 100.049 188.525 100.169 188.509C100.313 188.509 114.737 190.312 124.01 197.924C124.113 198.017 124.178 198.145 124.191 198.283C124.205 198.421 124.165 198.559 124.082 198.669C124.03 198.729 123.967 198.777 123.896 198.81C123.824 198.844 123.747 198.861 123.668 198.862Z" fill="#263238"/>
<path d="M107.037 206.259C106.931 206.248 106.83 206.206 106.747 206.139C106.665 206.071 106.603 205.981 106.571 205.88C106.538 205.778 106.535 205.669 106.563 205.566C106.591 205.463 106.648 205.371 106.728 205.299C116.784 198.024 122.526 187.929 122.581 187.83C122.602 187.748 122.642 187.672 122.697 187.607C122.752 187.543 122.821 187.492 122.899 187.459C122.977 187.426 123.062 187.411 123.146 187.415C123.231 187.42 123.314 187.444 123.387 187.486C123.461 187.528 123.524 187.586 123.572 187.656C123.62 187.726 123.651 187.806 123.662 187.89C123.674 187.974 123.666 188.06 123.639 188.14C123.613 188.221 123.568 188.294 123.508 188.354C123.453 188.453 117.595 198.752 107.351 206.16C107.259 206.224 107.149 206.259 107.037 206.259Z" fill="#263238"/>
<g opacity="0.3">
<path d="M117.137 203.612C110.461 203.544 104.026 201.104 98.9835 196.727C98.9182 196.626 98.8879 196.506 98.8972 196.386C98.9065 196.266 98.9548 196.152 99.0349 196.062C99.115 195.972 99.2223 195.911 99.3405 195.887C99.4587 195.864 99.5813 195.88 99.6896 195.933C104.102 199.872 111.979 203.6 120.767 202.277C120.844 202.243 120.928 202.227 121.013 202.231C121.097 202.235 121.18 202.258 121.254 202.299C121.328 202.34 121.392 202.397 121.44 202.467C121.488 202.536 121.52 202.616 121.533 202.699C121.546 202.783 121.539 202.868 121.513 202.949C121.488 203.03 121.444 203.103 121.385 203.164C121.327 203.225 121.255 203.272 121.175 203.301C121.096 203.329 121.011 203.34 120.926 203.33C119.672 203.518 118.405 203.612 117.137 203.612Z" fill="black"/>
<path d="M115.747 205.189C109.243 205.189 103.689 202.63 98.84 197.411C98.7454 197.309 98.6929 197.175 98.6929 197.036C98.6929 196.897 98.7454 196.763 98.84 196.661C98.9423 196.565 99.0775 196.512 99.2179 196.512C99.3583 196.512 99.4934 196.565 99.5957 196.661C104.963 202.442 111.235 204.809 118.764 203.915C118.843 203.882 118.928 203.868 119.013 203.873C119.098 203.879 119.181 203.904 119.255 203.947C119.328 203.99 119.391 204.049 119.438 204.121C119.485 204.192 119.515 204.273 119.525 204.358C119.535 204.442 119.526 204.528 119.497 204.609C119.468 204.689 119.421 204.762 119.36 204.821C119.299 204.88 119.224 204.924 119.143 204.95C119.061 204.975 118.975 204.982 118.891 204.968C117.848 205.105 116.798 205.179 115.747 205.189Z" fill="black"/>
<path d="M106.138 205.829C106.001 205.83 105.868 205.779 105.766 205.687C105.664 205.596 105.6 205.469 105.586 205.333C105.123 199.11 107.269 189.204 113.094 181.1C113.187 181.024 113.304 180.981 113.424 180.977C113.545 180.973 113.664 181.009 113.762 181.079C113.86 181.149 113.933 181.25 113.969 181.365C114.004 181.481 114.001 181.605 113.96 181.718C108.311 189.612 106.221 199.226 106.656 205.255C106.657 205.392 106.607 205.524 106.517 205.625C106.426 205.727 106.301 205.792 106.165 205.807L106.138 205.829Z" fill="black"/>
<path d="M100.848 200.892C100.747 200.891 100.647 200.863 100.561 200.809C100.446 200.731 100.365 200.611 100.334 200.475C100.303 200.339 100.325 200.196 100.396 200.076C102.249 197.147 109.133 187.323 119.923 183.875C120.056 183.837 120.2 183.852 120.323 183.915C120.447 183.979 120.542 184.086 120.59 184.217C120.628 184.351 120.613 184.494 120.55 184.618C120.486 184.742 120.379 184.837 120.248 184.884C109.801 188.227 103.098 197.792 101.295 200.644C101.246 200.718 101.18 200.78 101.102 200.823C101.024 200.866 100.937 200.89 100.848 200.892Z" fill="black"/>
<path d="M100.848 200.892C100.78 200.893 100.712 200.88 100.649 200.853C100.522 200.797 100.42 200.695 100.365 200.567C100.31 200.439 100.305 200.295 100.351 200.164C101.983 196.153 104.45 192.536 107.589 189.553C110.728 186.57 114.466 184.291 118.555 182.866C118.675 182.857 118.795 182.888 118.896 182.955C118.998 183.021 119.074 183.119 119.114 183.233C119.154 183.347 119.156 183.471 119.119 183.586C119.081 183.701 119.007 183.801 118.908 183.869C114.959 185.242 111.348 187.441 108.315 190.319C105.283 193.198 102.899 196.689 101.322 200.561C101.282 200.655 101.216 200.735 101.132 200.794C101.048 200.852 100.95 200.886 100.848 200.892Z" fill="black"/>
<path d="M104.566 204.902C104.432 204.904 104.302 204.856 104.201 204.769C104.099 204.682 104.033 204.56 104.014 204.428C102.679 192.932 106.452 186.357 110.733 180.968C110.823 180.862 110.95 180.794 111.088 180.778C111.226 180.762 111.365 180.798 111.477 180.88C111.585 180.97 111.654 181.098 111.67 181.237C111.686 181.377 111.649 181.517 111.566 181.63C107.429 186.843 103.782 193.214 105.073 204.307C105.085 204.446 105.042 204.585 104.955 204.694C104.868 204.804 104.743 204.876 104.604 204.897L104.566 204.902Z" fill="black"/>
<path d="M103.087 203.7C102.972 203.697 102.861 203.658 102.769 203.589C102.677 203.52 102.609 203.424 102.574 203.314C100.92 197.218 102.15 187.687 108.901 181.15C109.003 181.055 109.137 181.003 109.276 181.003C109.416 181.003 109.55 181.055 109.652 181.15C109.748 181.252 109.801 181.387 109.801 181.528C109.801 181.668 109.748 181.803 109.652 181.906C103.501 187.858 101.957 197.031 103.611 203.016C103.645 203.152 103.625 203.295 103.556 203.417C103.488 203.539 103.375 203.63 103.242 203.672L103.087 203.7Z" fill="black"/>
<path d="M124.308 196.253C124.197 196.252 124.09 196.217 123.999 196.154C116.111 190.478 106.491 188.387 100.462 188.839C100.342 188.817 100.233 188.756 100.151 188.665C100.07 188.574 100.021 188.459 100.012 188.337C100.003 188.215 100.035 188.094 100.102 187.992C100.17 187.891 100.269 187.814 100.385 187.775C106.607 187.317 116.514 189.457 124.622 195.288C124.704 195.359 124.763 195.452 124.791 195.557C124.82 195.661 124.818 195.771 124.784 195.874C124.751 195.977 124.688 196.068 124.603 196.135C124.518 196.203 124.416 196.244 124.308 196.253Z" fill="black"/>
<path d="M124.418 194.78C124.344 194.782 124.27 194.767 124.203 194.736C117.131 191.597 106.43 191.184 99.3145 193.765C99.2453 193.815 99.1656 193.848 99.0816 193.861C98.9977 193.875 98.9117 193.869 98.8304 193.844C98.7491 193.819 98.6747 193.775 98.6131 193.716C98.5515 193.658 98.5042 193.586 98.4751 193.506C98.4459 193.426 98.4357 193.34 98.4451 193.256C98.4545 193.171 98.4834 193.09 98.5294 193.018C98.5754 192.947 98.6374 192.887 98.7104 192.843C98.7835 192.8 98.8656 192.774 98.9504 192.767C106.298 190.097 117.336 190.527 124.633 193.765C124.758 193.826 124.856 193.933 124.906 194.063C124.956 194.192 124.955 194.337 124.904 194.466C124.86 194.558 124.791 194.636 124.705 194.692C124.62 194.747 124.52 194.778 124.418 194.78Z" fill="black"/>
<path d="M124.396 193.291C124.323 193.29 124.25 193.274 124.183 193.245C124.116 193.216 124.055 193.173 124.004 193.12C118.759 187.416 111.963 185.397 101.94 186.55C101.861 186.583 101.776 186.598 101.691 186.592C101.606 186.586 101.523 186.561 101.449 186.518C101.376 186.475 101.313 186.416 101.266 186.345C101.219 186.273 101.19 186.192 101.179 186.107C101.169 186.023 101.179 185.937 101.207 185.857C101.236 185.776 101.283 185.703 101.344 185.644C101.406 185.585 101.48 185.541 101.561 185.515C101.643 185.49 101.729 185.483 101.813 185.497C112.051 184.305 119.343 186.501 124.766 192.403C124.827 192.481 124.865 192.575 124.877 192.674C124.89 192.772 124.875 192.873 124.835 192.964C124.795 193.055 124.731 193.133 124.649 193.191C124.568 193.248 124.473 193.283 124.374 193.291H124.396Z" fill="black"/>
<path d="M123.999 191.129C123.858 191.125 123.724 191.068 123.624 190.969C117.065 184.427 107.815 183.483 103.628 184.901C103.507 184.909 103.386 184.877 103.285 184.809C103.184 184.742 103.108 184.643 103.069 184.528C103.03 184.412 103.031 184.288 103.07 184.173C103.109 184.058 103.185 183.959 103.286 183.892C107.726 182.386 117.501 183.34 124.374 190.213C124.469 190.315 124.521 190.449 124.521 190.588C124.521 190.727 124.469 190.861 124.374 190.963C124.275 191.064 124.141 191.124 123.999 191.129Z" fill="black"/>
<path d="M121.55 202.569C121.5 202.577 121.45 202.577 121.401 202.569C108.714 198.813 99.3862 190.285 99.2979 190.196C99.2346 190.094 99.2063 189.974 99.2175 189.854C99.2287 189.735 99.2786 189.622 99.3598 189.533C99.441 189.445 99.549 189.385 99.6673 189.363C99.7855 189.341 99.9076 189.359 100.015 189.413C100.109 189.501 109.265 197.864 121.704 201.549C121.81 201.599 121.898 201.683 121.953 201.787C122.008 201.891 122.029 202.01 122.011 202.127C121.994 202.243 121.94 202.351 121.857 202.435C121.774 202.518 121.666 202.573 121.55 202.591V202.569Z" fill="black"/>
<path d="M121.804 202.244C121.731 202.243 121.66 202.228 121.594 202.199C113.917 198.772 106.563 194.664 99.6178 189.926C99.5372 189.898 99.4643 189.851 99.4047 189.79C99.3451 189.729 99.3006 189.655 99.2746 189.573C99.2486 189.492 99.2418 189.406 99.2549 189.321C99.2679 189.237 99.3003 189.157 99.3496 189.087C99.3989 189.017 99.4637 188.96 99.539 188.92C99.6142 188.879 99.6978 188.857 99.7832 188.854C99.8685 188.852 99.9533 188.869 100.031 188.905C100.108 188.94 100.177 188.994 100.23 189.06C107.114 193.756 114.404 197.827 122.013 201.223C122.111 201.282 122.189 201.37 122.235 201.474C122.281 201.579 122.294 201.696 122.271 201.808C122.248 201.92 122.19 202.022 122.107 202.1C122.023 202.178 121.917 202.228 121.804 202.244Z" fill="black"/>
<path d="M122.272 201.587C122.186 201.589 122.1 201.568 122.024 201.526C111.174 195.69 99.7999 190.025 99.6896 189.97C99.5994 189.89 99.538 189.783 99.5148 189.664C99.4915 189.546 99.5078 189.423 99.561 189.315C99.6142 189.206 99.7014 189.119 99.8093 189.065C99.9173 189.011 100.04 188.994 100.158 189.016C100.274 189.071 111.665 194.747 122.526 200.6C122.617 200.664 122.687 200.755 122.725 200.859C122.764 200.964 122.77 201.078 122.743 201.186C122.715 201.294 122.655 201.392 122.571 201.465C122.488 201.539 122.383 201.585 122.272 201.598V201.587Z" fill="black"/>
<path d="M122.653 201.002C122.535 201.005 122.42 200.966 122.328 200.892C112.476 193.17 100.092 189.584 99.9653 189.551C99.8605 189.489 99.7792 189.394 99.7342 189.281C99.6891 189.167 99.6827 189.043 99.7161 188.925C99.7495 188.808 99.8207 188.705 99.9187 188.633C100.017 188.561 100.136 188.523 100.258 188.525C100.385 188.564 112.945 192.193 122.984 200.054C123.09 200.144 123.158 200.271 123.174 200.409C123.19 200.547 123.154 200.686 123.072 200.798C123.023 200.863 122.96 200.915 122.887 200.95C122.814 200.986 122.734 201.003 122.653 201.002Z" fill="black"/>
<path d="M123.668 198.862C123.546 198.862 123.428 198.821 123.331 198.746C114.307 191.333 100.164 189.584 100.043 189.568C99.9294 189.523 99.8342 189.442 99.7719 189.337C99.7096 189.232 99.6836 189.11 99.6981 188.989C99.7126 188.868 99.7667 188.756 99.852 188.669C99.9372 188.582 100.049 188.525 100.169 188.508C100.313 188.508 114.737 190.312 124.01 197.924C124.113 198.017 124.178 198.145 124.191 198.283C124.205 198.421 124.165 198.559 124.082 198.669C124.03 198.729 123.967 198.777 123.896 198.81C123.824 198.844 123.747 198.861 123.668 198.862Z" fill="black"/>
<path d="M107.037 206.259C106.931 206.248 106.83 206.206 106.747 206.139C106.665 206.071 106.603 205.981 106.571 205.88C106.538 205.778 106.535 205.669 106.563 205.566C106.591 205.463 106.648 205.371 106.728 205.299C116.784 198.024 122.526 187.929 122.581 187.83C122.602 187.748 122.642 187.672 122.697 187.607C122.752 187.543 122.821 187.492 122.899 187.459C122.977 187.425 123.062 187.411 123.146 187.415C123.231 187.42 123.314 187.444 123.387 187.486C123.461 187.528 123.524 187.586 123.572 187.656C123.62 187.726 123.651 187.806 123.662 187.89C123.674 187.974 123.666 188.06 123.639 188.14C123.613 188.221 123.568 188.294 123.508 188.354C123.453 188.453 117.595 198.752 107.351 206.16C107.259 206.224 107.149 206.259 107.037 206.259Z" fill="black"/>
</g>
</svg>
